<?xml version="1.0" encoding="utf-8"?>
<svg version="1.1" viewBox="0 0 1587.4016 1122.5197" width="1587.4016" height="1122.5197" style="stroke:none;stroke-linecap:butt;stroke-linejoin:miter;stroke-width:1;stroke-dasharray:none;fill:#000000;fill-opacity:1;fill-rule:evenodd" font-family="Arial" font-size="15" xmlns:xlink="http://www.w3.org/1999/xlink" xmlns="http://www.w3.org/2000/svg">
  <g id="Rectangle" transform="matrix(1,0,0,1,76.4005,303.3306)">
    <rect x="0" y="0" width="240.7222" height="245.3054" style="stroke:#000000;stroke-linecap:round;stroke-linejoin:round;stroke-width:4;fill:#FFFFFF;" />
    <path d="M93.0474,117.0052L93.0474,97.9285L105.917,97.9285L105.917,100.1797L95.5719,100.1797L95.5719,106.0875L104.5246,106.0875L104.5246,108.3387L95.5719,108.3387L95.5719,117.0052zM114.0499,117.0052L114.0499,100.1797L107.7648,100.1797L107.7648,97.9285L122.8855,97.9285L122.8855,100.1797L116.5744,100.1797L116.5744,117.0052zM125.4751,117.0052L125.4751,97.9285L132.0465,97.9285C133.5299,97.9285 134.662,98.0196 135.4428,98.2018C136.5359,98.4534 137.4684,98.9088 138.2405,99.5681C139.2468,100.4183 139.9994,101.5049 140.4982,102.8278C140.997,104.1508 141.2464,105.6624 141.2465,107.3627C141.2464,108.8115 141.0773,110.0954 140.739,111.2145C140.4006,112.3336 139.9669,113.2597 139.4377,113.9927C138.9085,114.7258 138.3294,115.3027 137.7005,115.7234C137.0715,116.1441 136.3125,116.463 135.4233,116.6798C134.5341,116.8967 133.5126,117.0052 132.3588,117.0052zM127.9995,114.754L132.0725,114.754C133.3304,114.754 134.3172,114.6368 135.0329,114.4026C135.7486,114.1684 136.319,113.8387 136.7441,113.4137C137.3427,112.8151 137.8089,112.0105 138.1429,110.9998C138.4769,109.9891 138.6439,108.7638 138.6439,107.3237C138.6439,105.3284 138.3164,103.7951 137.6615,102.7237C137.0065,101.6523 136.2105,100.9345 135.2736,100.5701C134.597,100.3099 133.5082,100.1797 132.0074,100.1797L127.9995,100.1797zM145.1503,117.0052L145.1503,97.9285L147.6747,97.9285L147.6747,117.0052zM47.3468,147.6501L47.3468,128.5734L54.5429,128.5734C55.8094,128.5734 56.7767,128.6342 57.4447,128.7556C58.3816,128.9118 59.1667,129.2089 59.8,129.647C60.4333,130.0851 60.9429,130.6989 61.329,131.4883C61.715,132.2777 61.908,133.1452 61.908,134.0908C61.908,135.7131 61.3919,137.0859 60.3595,138.2094C59.3272,139.3328 57.462,139.8945 54.7641,139.8945L49.8713,139.8945L49.8713,147.6501zM49.8713,137.6433L54.8031,137.6433C56.434,137.6433 57.5922,137.3397 58.2775,136.7324C58.9628,136.1252 59.3055,135.2706 59.3055,134.1689C59.3055,133.3708 59.1038,132.6876 58.7004,132.1194C58.297,131.5512 57.7657,131.176 57.1064,130.9938C56.6813,130.881 55.8962,130.8246 54.7511,130.8246L49.8713,130.8246zM64.7969,147.6501L64.7969,133.8306L66.9049,133.8306L66.9049,135.9256C67.4428,134.9453 67.9394,134.299 68.3949,133.9867C68.8503,133.6744 69.3513,133.5183 69.8978,133.5183C70.6873,133.5183 71.4897,133.7699 72.3052,134.273L71.4984,136.4461C70.9258,136.1078 70.3533,135.9386 69.7807,135.9386C69.2689,135.9386 68.8091,136.0926 68.4014,136.4006C67.9936,136.7085 67.703,137.1358 67.5295,137.6823C67.2693,138.5151 67.1391,139.426 67.1391,140.415L67.1391,147.6501zM72.8257,140.7403C72.8257,138.1812 73.5371,136.2856 74.9598,135.0538C76.1483,134.0301 77.597,133.5183 79.306,133.5183C81.2059,133.5183 82.7587,134.1407 83.9646,135.3856C85.1704,136.6305 85.7733,138.3503 85.7733,140.5451C85.7733,142.3235 85.5066,143.7224 84.973,144.7417C84.4395,145.761 83.6631,146.5527 82.6438,147.1165C81.6244,147.6804 80.5119,147.9624 79.306,147.9624C77.3715,147.9624 75.8078,147.3421 74.6149,146.1015C73.4221,144.861 72.8257,143.0739 72.8257,140.7403zM75.233,140.7403C75.233,142.51 75.6191,143.8352 76.3912,144.7157C77.1633,145.5962 78.1349,146.0365 79.306,146.0365C80.4685,146.0365 81.4358,145.5941 82.2078,144.7092C82.9799,143.8243 83.366,142.4753 83.366,140.6622C83.366,138.9532 82.9778,137.6585 82.2013,136.778C81.4249,135.8974 80.4598,135.4572 79.306,135.4572C78.1349,135.4572 77.1633,135.8952 76.3912,136.7714C75.6191,137.6476 75.233,138.9706 75.233,140.7403zM88.0896,148.7952L90.3668,149.1335C90.4622,149.8362 90.7268,150.348 91.1606,150.669C91.7418,151.1028 92.5356,151.3196 93.5419,151.3196C94.6263,151.3196 95.4634,151.1028 96.0534,150.669C96.6433,150.2352 97.0423,149.628 97.2505,148.8472C97.372,148.3701 97.4284,147.3681 97.4197,145.8413C96.396,147.0471 95.1208,147.6501 93.594,147.6501C91.6941,147.6501 90.2237,146.9647 89.1826,145.5941C88.1416,144.2234 87.6211,142.5794 87.6211,140.6622C87.6211,139.3436 87.8597,138.1269 88.3368,137.0122C88.814,135.8974 89.5058,135.0364 90.4124,134.4292C91.3189,133.8219 92.3838,133.5183 93.607,133.5183C95.2379,133.5183 96.5825,134.1776 97.6409,135.4962L97.6409,133.8306L99.801,133.8306L99.801,145.7762C99.801,147.9277 99.582,149.4523 99.1439,150.3502C98.7058,151.2481 98.0118,151.9573 97.0618,152.4778C96.1119,152.9983 94.9429,153.2585 93.5549,153.2585C91.9066,153.2585 90.575,152.8877 89.56,152.1459C88.545,151.4042 88.0549,150.2873 88.0896,148.7952zM90.0285,140.4931C90.0285,142.3062 90.3885,143.6291 91.1085,144.4619C91.8286,145.2948 92.7308,145.7112 93.8152,145.7112C94.8909,145.7112 95.7931,145.2969 96.5218,144.4684C97.2505,143.64 97.6149,142.3409 97.6149,140.5712C97.6149,138.8795 97.2397,137.6042 96.4893,136.7454C95.7389,135.8866 94.8345,135.4572 93.7761,135.4572C92.7351,135.4572 91.8503,135.8801 91.1215,136.7259C90.3928,137.5717 90.0285,138.8275 90.0285,140.4931zM103.3144,147.6501L103.3144,133.8306L105.4225,133.8306L105.4225,135.9256C105.9604,134.9453 106.457,134.299 106.9124,133.9867C107.3679,133.6744 107.8689,133.5183 108.4154,133.5183C109.2048,133.5183 110.0073,133.7699 110.8228,134.273L110.016,136.4461C109.4434,136.1078 108.8709,135.9386 108.2983,135.9386C107.7865,135.9386 107.3267,136.0926 106.919,136.4006C106.5112,136.7085 106.2206,137.1358 106.0471,137.6823C105.7868,138.5151 105.6567,139.426 105.6567,140.415L105.6567,147.6501zM121.2329,145.9454C120.3654,146.6828 119.5304,147.2033 118.728,147.5069C117.9255,147.8105 117.0645,147.9624 116.145,147.9624C114.6268,147.9624 113.46,147.5915 112.6445,146.8498C111.8291,146.108 111.4213,145.1603 111.4213,144.0065C111.4213,143.3298 111.5753,142.7117 111.8833,142.1522C112.1913,141.5927 112.5947,141.1437 113.0935,140.8054C113.5923,140.467 114.154,140.2111 114.7786,140.0376C115.2384,139.9162 115.9324,139.7991 116.8607,139.6863C118.7518,139.4607 120.1442,139.1918 121.0377,138.8795C121.0464,138.5585 121.0507,138.3546 121.0507,138.2679C121.0507,137.3136 120.8295,136.6413 120.3871,136.2509C119.7885,135.7218 118.8993,135.4572 117.7195,135.4572C116.6178,135.4572 115.8045,135.6502 115.2796,136.0362C114.7548,136.4223 114.3666,137.1054 114.115,138.0857L111.8247,137.7734C112.0329,136.7931 112.3756,136.0015 112.8527,135.3986C113.3299,134.7957 114.0195,134.3316 114.9218,134.0062C115.824,133.6809 116.8693,133.5183 118.0578,133.5183C119.2376,133.5183 120.1962,133.6571 120.9336,133.9347C121.671,134.2123 122.2132,134.5614 122.5602,134.9822C122.9072,135.4029 123.1501,135.9343 123.2889,136.5762C123.367,136.9753 123.406,137.6953 123.406,138.7364L123.406,141.8594C123.406,144.0369 123.4559,145.414 123.5557,145.9909C123.6554,146.5678 123.8528,147.1209 124.1478,147.6501L121.7014,147.6501C121.4585,147.1642 121.3023,146.596 121.2329,145.9454zM121.0377,140.7143C120.1876,141.0613 118.9123,141.3562 117.212,141.5992C116.2491,141.738 115.5681,141.8941 115.169,142.0676C114.77,142.2411 114.462,142.4949 114.2451,142.8289C114.0282,143.1628 113.9198,143.5337 113.9198,143.9414C113.9198,144.566 114.1562,145.0865 114.629,145.503C115.1018,145.9194 115.7936,146.1276 116.7045,146.1276C117.6067,146.1276 118.4092,145.9302 119.1119,145.5355C119.8145,145.1408 120.3307,144.6008 120.6604,143.9154C120.9119,143.3862 121.0377,142.6055 121.0377,141.5731zM127.0366,147.6501L127.0366,133.8306L129.1316,133.8306L129.1316,135.7695C129.5654,135.0928 130.1423,134.5484 130.8623,134.1364C131.5823,133.7243 132.4021,133.5183 133.3217,133.5183C134.3454,133.5183 135.1847,133.7308 135.8397,134.1559C136.4946,134.581 136.9566,135.1752 137.2255,135.9386C138.3186,134.3251 139.7413,133.5183 141.4937,133.5183C142.8643,133.5183 143.9184,133.8978 144.6558,134.6569C145.3932,135.416 145.7618,136.5849 145.7618,138.1638L145.7618,147.6501L143.4326,147.6501L143.4326,138.9446C143.4326,138.0076 143.3567,137.3332 143.2049,136.9211C143.053,136.509 142.7776,136.1772 142.3785,135.9256C141.9795,135.674 141.511,135.5482 140.9732,135.5482C140.0016,135.5482 139.1948,135.8714 138.5528,136.5177C137.9109,137.164 137.5899,138.1985 137.5899,139.6212L137.5899,147.6501L135.2476,147.6501L135.2476,138.6713C135.2476,137.6303 135.0567,136.8495 134.675,136.329C134.2933,135.8085 133.6687,135.5482 132.8012,135.5482C132.1419,135.5482 131.5325,135.7218 130.9729,136.0688C130.4134,136.4158 130.0078,136.9233 129.7562,137.5912C129.5047,138.2592 129.3789,139.2222 129.3789,140.4801L129.3789,147.6501zM149.2362,147.6501L149.2362,133.8306L151.3313,133.8306L151.3313,135.7695C151.765,135.0928 152.3419,134.5484 153.062,134.1364C153.782,133.7243 154.6018,133.5183 155.5214,133.5183C156.545,133.5183 157.3844,133.7308 158.0393,134.1559C158.6943,134.581 159.1563,135.1752 159.4252,135.9386C160.5182,134.3251 161.941,133.5183 163.6933,133.5183C165.064,133.5183 166.118,133.8978 166.8554,134.6569C167.5928,135.416 167.9615,136.5849 167.9615,138.1638L167.9615,147.6501L165.6322,147.6501L165.6322,138.9446C165.6322,138.0076 165.5563,137.3332 165.4045,136.9211C165.2527,136.509 164.9773,136.1772 164.5782,135.9256C164.1791,135.674 163.7107,135.5482 163.1728,135.5482C162.2012,135.5482 161.3944,135.8714 160.7525,136.5177C160.1105,137.164 159.7895,138.1985 159.7895,139.6212L159.7895,147.6501L157.4473,147.6501L157.4473,138.6713C157.4473,137.6303 157.2564,136.8495 156.8747,136.329C156.493,135.8085 155.8684,135.5482 155.0009,135.5482C154.3416,135.5482 153.7321,135.7218 153.1726,136.0688C152.613,136.4158 152.2075,136.9233 151.9559,137.5912C151.7043,138.2592 151.5785,139.2222 151.5785,140.4801L151.5785,147.6501zM180.8961,143.1997L183.3165,143.499C182.9348,144.9131 182.2278,146.0105 181.1954,146.7912C180.1631,147.572 178.8445,147.9624 177.2396,147.9624C175.2182,147.9624 173.6155,147.3399 172.4314,146.095C171.2472,144.8502 170.6551,143.1043 170.6551,140.8574C170.6551,138.5325 171.2537,136.7281 172.4509,135.4442C173.6481,134.1602 175.2009,133.5183 177.1094,133.5183C178.9572,133.5183 180.4667,134.1472 181.6378,135.4051C182.809,136.663 183.3946,138.4327 183.3946,140.7143C183.3946,140.8531 183.3902,141.0613 183.3815,141.3389L173.0755,141.3389C173.1622,142.857 173.5917,144.0195 174.3638,144.8263C175.1358,145.6331 176.0988,146.0365 177.2526,146.0365C178.1114,146.0365 178.8445,145.8109 179.4517,145.3598C180.059,144.9087 180.5404,144.1887 180.8961,143.1997zM173.2056,139.413L180.9221,139.413C180.8181,138.2505 180.5231,137.3787 180.0373,136.7975C179.2912,135.8952 178.3239,135.4442 177.1355,135.4442C176.0597,135.4442 175.1554,135.8042 174.4223,136.5242C173.6893,137.2442 173.2837,138.2072 173.2056,139.413zM186.2313,147.6501L186.2313,133.8306L188.3394,133.8306L188.3394,135.9256C188.8772,134.9453 189.3739,134.299 189.8293,133.9867C190.2848,133.6744 190.7858,133.5183 191.3323,133.5183C192.1217,133.5183 192.9242,133.7699 193.7397,134.273L192.9329,136.4461C192.3603,136.1078 191.7878,135.9386 191.2152,135.9386C190.7034,135.9386 190.2436,136.0926 189.8358,136.4006C189.4281,136.7085 189.1375,137.1358 188.964,137.6823C188.7037,138.5151 188.5736,139.426 188.5736,140.415L188.5736,147.6501z" />
  </g>
  <g id="Rectangle1" transform="matrix(1,0,0,1,255.664,466.7287)">
    <rect x="0" y="0" width="61.5244" height="42.1901" style="stroke:#000000;stroke-linecap:round;stroke-linejoin:round;stroke-width:4;fill:#FFFFFF;" />
    <path d="M20.772,25.9355L20.772,16.3913L25.0037,16.3913C25.8544,16.3913 26.5011,16.477 26.9438,16.6484C27.3866,16.8199 27.7403,17.1226 28.005,17.5566C28.2698,17.9907 28.4022,18.4703 28.4022,18.9954C28.4022,19.6725 28.183,20.2433 27.7446,20.7077C27.3063,21.1721 26.6292,21.4672 25.7134,21.5931C26.0476,21.7537 26.3015,21.9121 26.4751,22.0683C26.844,22.4069 27.1934,22.8301 27.5233,23.3379L29.1834,25.9355L27.5949,25.9355L26.3319,23.9499C25.9629,23.3769 25.6591,22.9386 25.4204,22.6348C25.1817,22.3309 24.9679,22.1183 24.7791,21.9967C24.5903,21.8752 24.3983,21.7906 24.203,21.7428C24.0597,21.7124 23.8254,21.6973 23.4998,21.6973L22.035,21.6973L22.035,25.9355zM22.035,20.6035L24.7498,20.6035C25.3271,20.6035 25.7785,20.5438 26.104,20.4245C26.4295,20.3051 26.6769,20.1141 26.8462,19.8515C27.0155,19.589 27.1001,19.3036 27.1001,18.9954C27.1001,18.544 26.9362,18.1729 26.6086,17.8821C26.2809,17.5913 25.7633,17.4459 25.0558,17.4459L22.035,17.4459zM29.4113,25.9355L33.1027,20.9616L29.8475,16.3913L31.3514,16.3913L33.0832,18.8392C33.4434,19.347 33.6995,19.7376 33.8514,20.0111C34.0641,19.6638 34.3158,19.3014 34.6066,18.9238L36.5272,16.3913L37.9009,16.3913L34.548,20.89L38.1613,25.9355L36.5988,25.9355L34.1964,22.5306C34.0619,22.3353 33.923,22.1226 33.7798,21.8926C33.5671,22.2398 33.4152,22.4785 33.3241,22.6087L30.9282,25.9355zM39.4894,25.9355L39.4894,16.3913L40.7524,16.3913L40.7524,25.9355z" />
  </g>
  <g id="Rectangle2" transform="matrix(1,0,0,1,255.664,336.6371)">
    <rect x="0" y="0" width="61.5244" height="42.1901" style="stroke:#000000;stroke-linecap:round;stroke-linejoin:round;stroke-width:4;fill:#FFFFFF;" />
    <path d="M20.658,25.9355L20.658,17.5176L17.5135,17.5176L17.5135,16.3913L25.0786,16.3913L25.0786,17.5176L21.9211,17.5176L21.9211,25.9355zM25.4041,25.9355L29.0955,20.9616L25.8403,16.3913L27.3442,16.3913L29.076,18.8392C29.4362,19.347 29.6923,19.7376 29.8442,20.0111C30.0569,19.6638 30.3086,19.3014 30.5994,18.9238L32.52,16.3913L33.8937,16.3913L30.5408,20.89L34.1541,25.9355L32.5916,25.9355L30.1893,22.5306C30.0547,22.3353 29.9158,22.1226 29.7726,21.8926C29.5599,22.2398 29.408,22.4785 29.3169,22.6087L26.9211,25.9355zM34.8833,21.2871C34.8833,19.7029 35.3086,18.4627 36.1593,17.5664C37.01,16.6701 38.1081,16.222 39.4536,16.222C40.3347,16.222 41.129,16.4325 41.8364,16.8535C42.5439,17.2745 43.0832,17.8615 43.4543,18.6146C43.8254,19.3676 44.0109,20.2216 44.0109,21.1764C44.0109,22.1443 43.8156,23.0102 43.425,23.7741C43.0343,24.538 42.4809,25.1163 41.7648,25.5091C41.0487,25.9019 40.2761,26.0983 39.4471,26.0983C38.5487,26.0983 37.7457,25.8813 37.0382,25.4473C36.3308,25.0132 35.7948,24.4208 35.4302,23.6699C35.0656,22.919 34.8833,22.1248 34.8833,21.2871zM36.1854,21.3066C36.1854,22.4568 36.4946,23.3628 37.1131,24.0247C37.7316,24.6866 38.5074,25.0176 39.4406,25.0176C40.3911,25.0176 41.1734,24.6834 41.7876,24.015C42.4017,23.3466 42.7088,22.3982 42.7088,21.1699C42.7088,20.393 42.5775,19.7148 42.3149,19.1354C42.0523,18.556 41.6682,18.1068 41.1626,17.7877C40.6569,17.4687 40.0895,17.3092 39.4601,17.3092C38.566,17.3092 37.7967,17.6163 37.1522,18.2305C36.5076,18.8446 36.1854,19.87 36.1854,21.3066z" />
  </g>
  <g id="Rectangle3" transform="matrix(-0.0019,-1,1,-0.0019,150.8937,548.6126)">
    <rect x="0" y="0" width="68.8275" height="46.3732" style="stroke:#000000;stroke-linecap:round;stroke-linejoin:round;stroke-width:4;fill:#FFFFFF;" />
    <path d="M25.0941,24.2836L25.0941,23.1638L29.137,23.1573L29.137,26.699C28.5164,27.1938 27.8762,27.566 27.2165,27.8155C26.5568,28.0651 25.8797,28.1899 25.1852,28.1899C24.2477,28.1899 23.3959,27.9891 22.6299,27.5877C21.8638,27.1862 21.2855,26.6057 20.8949,25.8461C20.5042,25.0866 20.3089,24.2381 20.3089,23.3006C20.3089,22.3717 20.5031,21.5048 20.8916,20.6996C21.2801,19.8945 21.8389,19.2966 22.568,18.906C23.2972,18.5154 24.137,18.3201 25.0876,18.3201C25.7777,18.3201 26.4016,18.4318 26.9593,18.6554C27.517,18.8789 27.9543,19.1903 28.2712,19.5896C28.588,19.9889 28.8289,20.5098 28.9938,21.1521L27.8545,21.4646C27.7113,20.9785 27.5333,20.5966 27.3206,20.3188C27.108,20.041 26.8041,19.8186 26.4092,19.6515C26.0142,19.4844 25.5758,19.4008 25.0941,19.4008C24.5168,19.4008 24.0177,19.4887 23.5967,19.6645C23.1757,19.8403 22.836,20.0714 22.5778,20.3578C22.3196,20.6443 22.1188,20.959 21.9756,21.3019C21.7325,21.8921 21.611,22.5323 21.611,23.2224C21.611,24.0731 21.7575,24.7849 22.0505,25.3578C22.3434,25.9308 22.7699,26.3561 23.3298,26.6339C23.8897,26.9117 24.4843,27.0506 25.1136,27.0506C25.6605,27.0506 26.1943,26.9453 26.7152,26.7348C27.236,26.5243 27.631,26.2997 27.9001,26.061L27.9001,24.2836zM30.986,28.0271L30.986,18.4828L32.2816,18.4828L37.2946,25.9763L37.2946,18.4828L38.5055,18.4828L38.5055,28.0271L37.21,28.0271L32.1969,20.5271L32.1969,28.0271zM40.6279,28.0271L40.6279,18.4828L43.9157,18.4828C44.6579,18.4828 45.2243,18.5284 45.6149,18.6196C46.1618,18.7454 46.6284,18.9733 47.0146,19.3032C47.5181,19.7285 47.8946,20.2721 48.1442,20.934C48.3938,21.5959 48.5186,22.3522 48.5186,23.2029C48.5186,23.9277 48.4339,24.5701 48.2646,25.13C48.0954,25.6899 47.8784,26.1532 47.6136,26.52C47.3489,26.8867 47.0591,27.1753 46.7445,27.3858C46.4298,27.5963 46.05,27.7558 45.6051,27.8644C45.1603,27.9729 44.6492,28.0271 44.0719,28.0271zM41.891,26.9008L43.9287,26.9008C44.5581,26.9008 45.0518,26.8422 45.4098,26.725C45.7679,26.6078 46.0533,26.4429 46.266,26.2302C46.5654,25.9308 46.7987,25.5282 46.9658,25.0226C47.1329,24.5169 47.2165,23.9039 47.2165,23.1834C47.2165,22.1851 47.0526,21.418 46.7249,20.8819C46.3972,20.3459 45.999,19.9868 45.5303,19.8045C45.1917,19.6743 44.647,19.6091 43.8962,19.6091L41.891,19.6091z" />
  </g>
  <g id="Rectangle4" transform="matrix(1,0,0,1,497.4138,159.1328)">
    <rect x="0" y="0" width="342.6428" height="496.652" style="stroke:#000000;stroke-linecap:round;stroke-linejoin:round;stroke-width:4;fill:#FFFFFF;" />
    <path d="M116.6811,242.6785L116.6811,223.6019L130.4745,223.6019L130.4745,225.8531L119.2056,225.8531L119.2056,231.6958L129.7589,231.6958L129.7589,233.9339L119.2056,233.9339L119.2056,240.4273L130.917,240.4273L130.917,242.6785zM133.5455,236.5495L135.9269,236.3413C136.0396,237.2956 136.3021,238.0785 136.7141,238.6901C137.1262,239.3017 137.766,239.7962 138.6335,240.1735C139.501,240.5509 140.477,240.7396 141.5614,240.7396C142.5243,240.7396 143.3745,240.5965 144.1118,240.3102C144.8492,240.0239 145.3979,239.6313 145.758,239.1325C146.118,238.6337 146.298,238.0893 146.298,237.4994C146.298,236.9008 146.1245,236.3782 145.7775,235.9314C145.4305,235.4846 144.8579,235.1094 144.0598,234.8058C143.548,234.6063 142.4159,234.2961 140.6635,233.8754C138.9111,233.4547 137.6836,233.0578 136.9809,232.6847C136.07,232.2076 135.3912,231.6155 134.9444,230.9085C134.4976,230.2015 134.2743,229.4099 134.2743,228.5337C134.2743,227.5707 134.5475,226.6707 135.0941,225.8335C135.6406,224.9964 136.4387,224.3609 137.4884,223.9272C138.5381,223.4934 139.7049,223.2766 140.9888,223.2766C142.4028,223.2766 143.6499,223.5043 144.7299,223.9597C145.81,224.4152 146.6407,225.0853 147.2219,225.9702C147.8031,226.855 148.1154,227.857 148.1588,228.9761L145.7384,229.1583C145.6083,227.9525 145.168,227.0416 144.4176,226.4256C143.6673,225.8097 142.559,225.5017 141.0929,225.5017C139.5661,225.5017 138.4535,225.7815 137.7552,226.341C137.0568,226.9006 136.7076,227.5751 136.7076,228.3645C136.7076,229.0499 136.9549,229.6137 137.4494,230.0562C137.9352,230.4986 139.2039,230.9519 141.2556,231.416C143.3072,231.8801 144.7148,232.2857 145.4782,232.6327C146.5886,233.1445 147.4084,233.793 147.9376,234.5781C148.4668,235.3632 148.7314,236.2676 148.7314,237.2912C148.7314,238.3062 148.4407,239.2626 147.8595,240.1605C147.2783,241.0584 146.4433,241.7567 145.3546,242.2556C144.2658,242.7544 143.0405,243.0038 141.6785,243.0038C139.9521,243.0038 138.5056,242.7522 137.3387,242.2491C136.1719,241.7459 135.2567,240.989 134.5931,239.9783C133.9294,238.9677 133.5802,237.8248 133.5455,236.5495zM152.1797,242.6785L152.1797,223.6019L159.3757,223.6019C160.6423,223.6019 161.6096,223.6626 162.2776,223.784C163.2145,223.9402 163.9996,224.2373 164.6329,224.6754C165.2662,225.1135 165.7758,225.7273 166.1619,226.5167C166.5479,227.3062 166.7409,228.1737 166.7409,229.1192C166.7409,230.7415 166.2248,232.1143 165.1924,233.2378C164.1601,234.3612 162.2949,234.9229 159.597,234.9229L154.7042,234.9229L154.7042,242.6785zM154.7042,232.6717L159.636,232.6717C161.2669,232.6717 162.425,232.3681 163.1104,231.7608C163.7957,231.1536 164.1384,230.2991 164.1384,229.1973C164.1384,228.3992 163.9367,227.716 163.5333,227.1478C163.1299,226.5796 162.5986,226.2044 161.9392,226.0222C161.5142,225.9095 160.7291,225.8531 159.584,225.8531L154.7042,225.8531zM172.6096,232.3334C171.638,231.9777 170.918,231.4702 170.4496,230.8109C169.9811,230.1516 169.7469,229.3622 169.7469,228.4426C169.7469,227.0546 170.2457,225.8878 171.2433,224.9422C172.241,223.9966 173.5683,223.5238 175.2252,223.5238C176.8908,223.5238 178.2311,224.0074 179.2461,224.9747C180.2611,225.942 180.7686,227.1196 180.7686,228.5077C180.7686,229.3925 180.5366,230.1624 180.0724,230.8174C179.6083,231.4724 178.9035,231.9777 177.9579,232.3334C179.129,232.7151 180.0204,233.331 180.632,234.1812C181.2436,235.0314 181.5494,236.0463 181.5494,237.2262C181.5494,238.8571 180.9725,240.2278 179.8187,241.3382C178.6649,242.4486 177.1467,243.0038 175.2643,243.0038C173.3817,243.0038 171.8636,242.4464 170.7098,241.3317C169.556,240.2169 168.9791,238.8267 168.9791,237.1611C168.9791,235.9206 169.2936,234.8817 169.9225,234.0446C170.5515,233.2074 171.4472,232.637 172.6096,232.3334zM172.1412,228.3645C172.1412,229.2667 172.4318,230.0041 173.013,230.5767C173.5943,231.1492 174.349,231.4355 175.2773,231.4355C176.1795,231.4355 176.919,231.1514 177.4959,230.5832C178.0728,230.015 178.3613,229.3188 178.3613,228.4946C178.3613,227.6358 178.0641,226.9136 177.4699,226.328C176.8756,225.7425 176.1361,225.4497 175.2512,225.4497C174.3577,225.4497 173.616,225.736 173.0261,226.3085C172.4362,226.8811 172.1412,227.5664 172.1412,228.3645zM171.3865,237.1741C171.3865,237.8421 171.5448,238.4884 171.8614,239.113C172.1781,239.7376 172.6487,240.2213 173.2733,240.5639C173.8979,240.9066 174.5702,241.0779 175.2903,241.0779C176.4094,241.0779 177.3333,240.7179 178.062,239.9979C178.7907,239.2778 179.155,238.3626 179.155,237.2522C179.155,236.1244 178.7798,235.1918 178.0294,234.4545C177.279,233.7171 176.34,233.3484 175.2122,233.3484C174.1104,233.3484 173.1974,233.7127 172.473,234.4415C171.7486,235.1702 171.3865,236.081 171.3865,237.1741zM196.1366,240.4273L196.1366,242.6785L183.5273,242.6785C183.5099,242.1146 183.601,241.5724 183.8006,241.0519C184.1216,240.1931 184.6356,239.3472 185.3426,238.5144C186.0496,237.6816 187.0711,236.7187 188.4071,235.6256C190.4804,233.9253 191.8815,232.5785 192.6102,231.5852C193.3389,230.5919 193.7032,229.6528 193.7032,228.7679C193.7032,227.8397 193.3714,227.0567 192.7078,226.4191C192.0441,225.7815 191.1788,225.4627 190.1117,225.4627C188.984,225.4627 188.0818,225.801 187.4051,226.4777C186.7284,227.1543 186.3858,228.0912 186.3771,229.2884L183.9697,229.0412C184.1346,227.2454 184.7548,225.8769 185.8306,224.9357C186.9063,223.9944 188.3507,223.5238 190.1638,223.5238C191.9942,223.5238 193.443,224.0313 194.51,225.0463C195.5771,226.0613 196.1106,227.3192 196.1106,228.82C196.1106,229.5834 195.9544,230.3338 195.6421,231.0712C195.3298,231.8085 194.8115,232.585 194.0871,233.4004C193.3627,234.2159 192.1591,235.335 190.4761,236.7577C189.0707,237.9375 188.1685,238.7378 187.7694,239.1586C187.3704,239.5793 187.0407,240.0022 186.7805,240.4273zM210.8019,228.2734L208.4726,228.4556C208.2644,227.536 207.9695,226.8681 207.5878,226.4516C206.9545,225.7837 206.1737,225.4497 205.2455,225.4497C204.4994,225.4497 203.8445,225.6579 203.2806,226.0743C202.5432,226.6121 201.9619,227.3972 201.5369,228.4296C201.1118,229.4619 200.8906,230.9324 200.8732,232.8409C201.4371,231.982 202.1268,231.3444 202.9422,230.928C203.7577,230.5116 204.6122,230.3034 205.5057,230.3034C207.0673,230.3034 208.3967,230.8781 209.4941,232.0276C210.5916,233.177 211.1402,234.6627 211.1402,236.4844C211.1402,237.6816 210.8822,238.7942 210.366,239.8222C209.8498,240.8502 209.1406,241.6375 208.2384,242.184C207.3362,242.7305 206.3125,243.0038 205.1674,243.0038C203.2155,243.0038 201.6236,242.2859 200.3918,240.8502C199.1599,239.4145 198.5439,237.0483 198.5439,233.7518C198.5439,230.0648 199.2249,227.3842 200.5869,225.7099C201.7754,224.2525 203.376,223.5238 205.3886,223.5238C206.8894,223.5238 208.1191,223.9445 209.0777,224.786C210.0363,225.6275 210.6111,226.79 210.8019,228.2734zM201.2376,236.4975C201.2376,237.3042 201.4089,238.0763 201.7516,238.8137C202.0942,239.5511 202.5735,240.1128 203.1895,240.4989C203.8054,240.8849 204.4517,241.0779 205.1284,241.0779C206.1173,241.0779 206.9675,240.6789 207.6789,239.8808C208.3902,239.0826 208.7459,237.9982 208.7459,236.6276C208.7459,235.309 208.3946,234.2701 207.6919,233.511C206.9892,232.752 206.1043,232.3724 205.0373,232.3724C203.9789,232.3724 203.081,232.752 202.3437,233.511C201.6063,234.2701 201.2376,235.2656 201.2376,236.4975zM225.6234,228.2734L223.2941,228.4556C223.0859,227.536 222.7909,226.8681 222.4092,226.4516C221.7759,225.7837 220.9952,225.4497 220.067,225.4497C219.3209,225.4497 218.6659,225.6579 218.102,226.0743C217.3647,226.6121 216.7834,227.3972 216.3583,228.4296C215.9333,229.4619 215.712,230.9324 215.6947,232.8409C216.2586,231.982 216.9482,231.3444 217.7637,230.928C218.5792,230.5116 219.4337,230.3034 220.3272,230.3034C221.8887,230.3034 223.2182,230.8781 224.3156,232.0276C225.413,233.177 225.9617,234.6627 225.9617,236.4844C225.9617,237.6816 225.7036,238.7942 225.1874,239.8222C224.6713,240.8502 223.9621,241.6375 223.0599,242.184C222.1577,242.7305 221.134,243.0038 219.9889,243.0038C218.037,243.0038 216.4451,242.2859 215.2132,240.8502C213.9814,239.4145 213.3654,237.0483 213.3654,233.7518C213.3654,230.0648 214.0464,227.3842 215.4084,225.7099C216.5969,224.2525 218.1974,223.5238 220.2101,223.5238C221.7109,223.5238 222.9406,223.9445 223.8992,224.786C224.8578,225.6275 225.4325,226.79 225.6234,228.2734zM216.059,236.4975C216.059,237.3042 216.2304,238.0763 216.573,238.8137C216.9157,239.5511 217.395,240.1128 218.0109,240.4989C218.6269,240.8849 219.2732,241.0779 219.9498,241.0779C220.9388,241.0779 221.789,240.6789 222.5003,239.8808C223.2117,239.0826 223.5674,237.9982 223.5674,236.6276C223.5674,235.309 223.216,234.2701 222.5133,233.511C221.8106,232.752 220.9258,232.3724 219.8587,232.3724C218.8004,232.3724 217.9025,232.752 217.1651,233.511C216.4277,234.2701 216.059,235.2656 216.059,236.4975zM103.0568,273.3234L97.9949,254.2467L100.5844,254.2467L103.4862,266.752C103.7985,268.0619 104.0675,269.3632 104.293,270.6558C104.7788,268.6171 105.0651,267.4416 105.1518,267.1293L108.7824,254.2467L111.8274,254.2467L114.56,263.9022C115.2454,266.2965 115.7398,268.5477 116.0435,270.6558C116.2864,269.4499 116.603,268.0662 116.9934,266.5047L119.9863,254.2467L122.5238,254.2467L117.2927,273.3234L114.8593,273.3234L110.8384,258.7882C110.5001,257.5737 110.3005,256.8276 110.2398,256.55C110.0403,257.4262 109.8538,258.1723 109.6803,258.7882L105.6333,273.3234zM124.5928,256.9404L124.5928,254.2467L126.9351,254.2467L126.9351,256.9404zM124.5928,273.3234L124.5928,259.5039L126.9351,259.5039L126.9351,273.3234zM130.93,273.3234L130.93,254.2467L143.7996,254.2467L143.7996,256.498L133.4545,256.498L133.4545,262.4057L142.4072,262.4057L142.4072,264.6569L133.4545,264.6569L133.4545,273.3234zM146.7925,256.9404L146.7925,254.2467L149.1348,254.2467L149.1348,256.9404zM146.7925,273.3234L146.7925,259.5039L149.1348,259.5039L149.1348,273.3234zM160.3257,273.3234L160.3257,254.2467L164.1254,254.2467L168.6408,267.7539C169.0572,269.0118 169.3608,269.9531 169.5517,270.5777C169.7686,269.8837 170.1069,268.8643 170.5667,267.5197L175.1341,254.2467L178.5304,254.2467L178.5304,273.3234L176.0971,273.3234L176.0971,257.3568L170.5536,273.3234L168.2764,273.3234L162.759,257.0835L162.759,273.3234zM181.4323,266.4136C181.4323,263.8545 182.1436,261.959 183.5663,260.7271C184.7548,259.7034 186.2036,259.1916 187.9126,259.1916C189.8124,259.1916 191.3653,259.814 192.5711,261.0589C193.777,262.3038 194.3799,264.0236 194.3799,266.2184C194.3799,267.9968 194.1131,269.3957 193.5796,270.415C193.0461,271.4344 192.2697,272.226 191.2503,272.7899C190.231,273.3537 189.1184,273.6357 187.9126,273.6357C185.978,273.6357 184.4143,273.0154 183.2215,271.7748C182.0287,270.5343 181.4323,268.7472 181.4323,266.4136zM183.8396,266.4136C183.8396,268.1833 184.2256,269.5085 184.9977,270.389C185.7698,271.2695 186.7415,271.7098 187.9126,271.7098C189.075,271.7098 190.0423,271.2674 190.8144,270.3825C191.5865,269.4976 191.9725,268.1487 191.9725,266.3355C191.9725,264.6266 191.5843,263.3318 190.8079,262.4513C190.0315,261.5707 189.0664,261.1305 187.9126,261.1305C186.7415,261.1305 185.7698,261.5686 184.9977,262.4448C184.2256,263.321 183.8396,264.6439 183.8396,266.4136zM206.0913,273.3234L206.0913,271.5797C205.2151,272.9503 203.9269,273.6357 202.2265,273.6357C201.1248,273.6357 200.112,273.332 199.1881,272.7248C198.2642,272.1175 197.5485,271.2695 197.041,270.1808C196.5335,269.0921 196.2798,267.8407 196.2798,266.4266C196.2798,265.0473 196.5096,263.7959 196.9694,262.6725C197.4292,261.549 198.1189,260.688 199.0384,260.0894C199.958,259.4909 200.986,259.1916 202.1224,259.1916C202.9553,259.1916 203.697,259.3672 204.3476,259.7186C204.9982,260.0699 205.5274,260.5276 205.9352,261.0914L205.9352,254.2467L208.2644,254.2467L208.2644,273.3234zM198.6871,266.4266C198.6871,268.1964 199.0601,269.5193 199.8062,270.3955C200.5522,271.2717 201.4328,271.7098 202.4478,271.7098C203.4714,271.7098 204.3411,271.2912 205.0568,270.4541C205.7725,269.6169 206.1303,268.3395 206.1304,266.6218C206.1303,264.7307 205.766,263.3426 205.0373,262.4578C204.3086,261.5729 203.4107,261.1305 202.3437,261.1305C201.3026,261.1305 200.433,261.5555 199.7346,262.4057C199.0363,263.2559 198.6871,264.5962 198.6871,266.4266zM221.0039,273.3234L221.0039,271.2934C219.9281,272.8549 218.4664,273.6357 216.6186,273.6357C215.8031,273.6357 215.0419,273.4795 214.3349,273.1672C213.6278,272.8549 213.103,272.4624 212.7603,271.9896C212.4177,271.5168 212.1769,270.9377 212.0381,270.2524C211.9427,269.7926 211.895,269.0639 211.895,268.0662L211.895,259.5039L214.2373,259.5039L214.2373,267.1684C214.2373,268.3915 214.285,269.2157 214.3804,269.6408C214.5279,270.2567 214.8402,270.7404 215.3173,271.0917C215.7944,271.443 216.3844,271.6187 217.087,271.6187C217.7897,271.6187 218.449,271.4387 219.065,271.0787C219.6809,270.7187 220.1168,270.2285 220.3727,269.6082C220.6287,268.988 220.7566,268.0879 220.7566,266.9081L220.7566,259.5039L223.0989,259.5039L223.0989,273.3234zM226.7164,273.3234L226.7164,254.2467L229.0587,254.2467L229.0587,273.3234zM242.1495,268.873L244.5699,269.1723C244.1881,270.5864 243.4811,271.6838 242.4488,272.4645C241.4164,273.2453 240.0978,273.6357 238.4929,273.6357C236.4716,273.6357 234.8689,273.0132 233.6847,271.7683C232.5006,270.5235 231.9085,268.7776 231.9085,266.5307C231.9085,264.2058 232.5071,262.4014 233.7043,261.1175C234.9014,259.8335 236.4543,259.1916 238.3628,259.1916C240.2106,259.1916 241.7201,259.8205 242.8912,261.0784C244.0623,262.3363 244.6479,264.106 244.6479,266.3876C244.6479,266.5264 244.6436,266.7346 244.6349,267.0122L234.3289,267.0122C234.4156,268.5304 234.845,269.6928 235.6171,270.4996C236.3892,271.3064 237.3521,271.7098 238.506,271.7098C239.3648,271.7098 240.0978,271.4842 240.7051,271.0331C241.3123,270.582 241.7938,269.862 242.1495,268.873zM234.459,265.0863L242.1755,265.0863C242.0714,263.9239 241.7765,263.052 241.2906,262.4708C240.5446,261.5686 239.5773,261.1175 238.3888,261.1175C237.3131,261.1175 236.4087,261.4775 235.6757,262.1975C234.9426,262.9175 234.5371,263.8805 234.459,265.0863z" />
  </g>
  <g id="Rectangle5" transform="matrix(1,0,0,1,497.4138,286.3631)">
    <rect x="0" y="0" width="65.5675" height="47.7689" style="stroke:#000000;stroke-linecap:round;stroke-linejoin:round;stroke-width:4;fill:#FFFFFF;" />
    <path d="M16.384,27.5987L16.384,28.725L10.0754,28.725C10.0667,28.4428 10.1123,28.1716 10.2121,27.9112C10.3727,27.4815 10.6299,27.0583 10.9836,26.6416C11.3373,26.225 11.8484,25.7432 12.5168,25.1963C13.5541,24.3456 14.2551,23.6718 14.6197,23.1748C14.9843,22.6779 15.1665,22.208 15.1665,21.7653C15.1665,21.3009 15.0005,20.9092 14.6685,20.5902C14.3365,20.2712 13.9035,20.1117 13.3697,20.1117C12.8054,20.1117 12.354,20.2809 12.0155,20.6195C11.677,20.958 11.5055,21.4268 11.5012,22.0257L10.2968,21.902C10.3792,21.0036 10.6896,20.3189 11.2277,19.848C11.7659,19.3771 12.4886,19.1416 13.3957,19.1416C14.3115,19.1416 15.0363,19.3955 15.5702,19.9033C16.104,20.4112 16.371,21.0405 16.371,21.7914C16.371,22.1733 16.2929,22.5487 16.1366,22.9177C15.9804,23.2866 15.721,23.675 15.3586,24.083C14.9962,24.491 14.394,25.0509 13.552,25.7627C12.8488,26.353 12.3975,26.7534 12.1978,26.9639C11.9981,27.1744 11.8332,27.386 11.703,27.5987zM21.2147,25.8604L21.2147,24.682L24.815,24.682L24.815,25.8604zM32.1522,28.725L32.1522,20.307L29.0077,20.307L29.0077,19.1807L36.5728,19.1807L36.5728,20.307L33.4152,20.307L33.4152,28.725zM36.8983,28.725L40.5897,23.751L37.3345,19.1807L38.8384,19.1807L40.5702,21.6286C40.9304,22.1364 41.1865,22.527 41.3384,22.8005C41.5511,22.4533 41.8028,22.0908 42.0936,21.7132L44.0142,19.1807L45.3879,19.1807L42.035,23.6794L45.6483,28.725L44.0858,28.725L41.6835,25.32C41.5489,25.1247 41.41,24.912 41.2668,24.682C41.0541,25.0292 40.9022,25.2679 40.8111,25.3981L38.4152,28.725zM46.3775,24.0765C46.3775,22.4923 46.8028,21.2521 47.6535,20.3558C48.5042,19.4595 49.6023,19.0114 50.9478,19.0114C51.8289,19.0114 52.6231,19.2219 53.3306,19.6429C54.0381,20.0639 54.5774,20.651 54.9484,21.404C55.3195,22.157 55.5051,23.011 55.5051,23.9658C55.5051,24.9337 55.3098,25.7996 54.9192,26.5635C54.5285,27.3274 53.9751,27.9057 53.259,28.2985C52.5428,28.6913 51.7703,28.8877 50.9413,28.8877C50.0428,28.8877 49.2399,28.6707 48.5324,28.2367C47.825,27.8026 47.2889,27.2102 46.9244,26.4593C46.5598,25.7085 46.3775,24.9142 46.3775,24.0765zM47.6796,24.096C47.6796,25.2462 47.9888,26.1523 48.6073,26.8141C49.2258,27.476 50.0016,27.807 50.9348,27.807C51.8853,27.807 52.6676,27.4728 53.2818,26.8044C53.8959,26.136 54.203,25.1876 54.203,23.9593C54.203,23.1824 54.0717,22.5043 53.8091,21.9248C53.5465,21.3454 53.1624,20.8962 52.6568,20.5772C52.1511,20.2582 51.5836,20.0987 50.9543,20.0987C50.0602,20.0987 49.2909,20.4057 48.6464,21.0199C48.0018,21.634 47.6796,22.6594 47.6796,24.096z" />
  </g>
  <g id="Rectangle6" transform="matrix(1,0,0,1,497.4138,391.8973)">
    <rect x="0" y="0" width="65.5675" height="49.7249" style="stroke:#000000;stroke-linecap:round;stroke-linejoin:round;stroke-width:4;fill:#FFFFFF;" />
    <path d="M12.953,21.4086L12.953,20.2823L19.1314,20.2823L19.1314,21.1938C18.5238,21.8405 17.9215,22.6999 17.3248,23.7719C16.728,24.844 16.2668,25.9464 15.9413,27.0792C15.7069,27.8778 15.5572,28.7524 15.4921,29.7029L14.2876,29.7029C14.3007,28.9521 14.4482,28.0449 14.7304,26.9816C15.0125,25.9182 15.4172,24.8928 15.9445,23.9054C16.4719,22.918 17.0329,22.0857 17.6275,21.4086zM23.8645,26.8383L23.8645,25.66L27.4647,25.66L27.4647,26.8383zM32.634,29.7029L32.634,20.1586L36.8658,20.1586C37.7165,20.1586 38.3632,20.2444 38.8059,20.4158C39.2486,20.5873 39.6023,20.89 39.8671,21.324C40.1318,21.758 40.2642,22.2376 40.2642,22.7628C40.2642,23.4399 40.045,24.0106 39.6067,24.4751C39.1683,24.9395 38.4912,25.2346 37.5754,25.3605C37.9096,25.5211 38.1635,25.6795 38.3371,25.8357C38.706,26.1743 39.0554,26.5975 39.3853,27.1053L41.0455,29.7029L39.4569,29.7029L38.1939,27.7172C37.825,27.1443 37.5211,26.706 37.2824,26.4021C37.0437,26.0983 36.83,25.8856 36.6412,25.7641C36.4524,25.6426 36.2603,25.558 36.065,25.5102C35.9218,25.4798 35.6874,25.4646 35.3619,25.4646L33.897,25.4646L33.897,29.7029zM33.897,24.3709L36.6119,24.3709C37.1891,24.3709 37.6405,24.3112 37.966,24.1919C38.2915,24.0725 38.5389,23.8815 38.7082,23.6189C38.8775,23.3563 38.9621,23.071 38.9621,22.7628C38.9621,22.3114 38.7983,21.9403 38.4706,21.6495C38.1429,21.3587 37.6253,21.2133 36.9179,21.2133L33.897,21.2133zM41.2733,29.7029L44.9647,24.729L41.7095,20.1586L43.2134,20.1586L44.9452,22.6066C45.3054,23.1144 45.5615,23.505 45.7134,23.7784C45.9261,23.4312 46.1778,23.0688 46.4686,22.6912L48.3892,20.1586L49.7629,20.1586L46.41,24.6573L50.0233,29.7029L48.4608,29.7029L46.0585,26.298C45.9239,26.1027 45.785,25.89 45.6418,25.66C45.4291,26.0072 45.2772,26.2459 45.1861,26.3761L42.7902,29.7029zM51.3514,29.7029L51.3514,20.1586L52.6145,20.1586L52.6145,29.7029z" />
  </g>
  <g id="Rectangle7" transform="matrix(0.0071,-1,1,0.0071,644.2559,228.7908)">
    <rect x="0" y="0" width="69.6309" height="48.4643" style="stroke:#000000;stroke-linecap:round;stroke-linejoin:round;stroke-width:4;fill:#FFFFFF;" />
    <path d="M13.458,23.8968C12.9719,23.7189 12.6117,23.465 12.3773,23.1351C12.1429,22.8053 12.0258,22.4103 12.0258,21.9502C12.0258,21.2558 12.2753,20.672 12.7744,20.1989C13.2736,19.7258 13.9376,19.4893 14.7666,19.4893C15.6,19.4893 16.2705,19.7313 16.7784,20.2152C17.2862,20.6991 17.5401,21.2883 17.5401,21.9828C17.5401,22.4255 17.424,22.8107 17.1918,23.1384C16.9596,23.4661 16.6069,23.7189 16.1338,23.8968C16.7198,24.0878 17.1657,24.396 17.4717,24.8213C17.7777,25.2467 17.9307,25.7545 17.9307,26.3448C17.9307,27.1607 17.6421,27.8465 17.0648,28.4021C16.4876,28.9576 15.728,29.2354 14.7862,29.2354C13.8443,29.2354 13.0848,28.9565 12.5075,28.3988C11.9303,27.8411 11.6416,27.1455 11.6416,26.3122C11.6416,25.6915 11.799,25.1718 12.1136,24.753C12.4283,24.3341 12.8764,24.0488 13.458,23.8968zM13.2237,21.9112C13.2237,22.3626 13.3691,22.7315 13.6599,23.0179C13.9507,23.3044 14.3283,23.4476 14.7927,23.4476C15.2441,23.4476 15.6141,23.3055 15.9027,23.0212C16.1913,22.7369 16.3356,22.3886 16.3356,21.9763C16.3356,21.5466 16.187,21.1853 15.8897,20.8923C15.5924,20.5993 15.2224,20.4528 14.7797,20.4528C14.3326,20.4528 13.9615,20.5961 13.6664,20.8825C13.3712,21.169 13.2237,21.5119 13.2237,21.9112zM12.8461,26.3187C12.8461,26.6529 12.9253,26.9763 13.0837,27.2888C13.2421,27.6013 13.4776,27.8432 13.7901,28.0147C14.1026,28.1861 14.4389,28.2718 14.7992,28.2718C15.3591,28.2718 15.8213,28.0917 16.1859,27.7315C16.5505,27.3712 16.7328,26.9133 16.7328,26.3578C16.7328,25.7935 16.5451,25.327 16.1696,24.958C15.7942,24.5891 15.3244,24.4047 14.7601,24.4047C14.2089,24.4047 13.7521,24.5869 13.3897,24.9515C13.0273,25.3161 12.8461,25.7718 12.8461,26.3187zM22.6442,26.208L22.6442,25.0297L26.2445,25.0297L26.2445,26.208zM34.1221,29.0726L30.4242,19.5284L31.7914,19.5284L34.2718,26.4619C34.4715,27.0175 34.6386,27.5383 34.7731,28.0244C34.9207,27.5036 35.0922,26.9828 35.2875,26.4619L37.8656,19.5284L39.1547,19.5284L35.4177,29.0726zM47.0974,25.7263L48.3604,26.0453C48.0956,27.0826 47.6193,27.8736 46.9314,28.4183C46.2434,28.963 45.4025,29.2354 44.4086,29.2354C43.3799,29.2354 42.5433,29.026 41.8988,28.6071C41.2543,28.1883 40.7638,27.5817 40.4274,26.7875C40.0911,25.9932 39.9229,25.1403 39.9229,24.2289C39.9229,23.235 40.1128,22.368 40.4925,21.628C40.8723,20.8879 41.4127,20.3259 42.1136,19.9418C42.8146,19.5577 43.5861,19.3656 44.4281,19.3656C45.383,19.3656 46.1859,19.6086 46.8369,20.0948C47.488,20.5809 47.9415,21.2645 48.1976,22.1455L46.9541,22.4385C46.7328,21.7441 46.4116,21.2384 45.9906,20.9216C45.5696,20.6047 45.0401,20.4463 44.4021,20.4463C43.6685,20.4463 43.0555,20.6221 42.5629,20.9737C42.0702,21.3252 41.7241,21.7972 41.5244,22.3897C41.3248,22.9821 41.225,23.593 41.225,24.2224C41.225,25.034 41.3432,25.7425 41.5798,26.348C41.8163,26.9535 42.1842,27.406 42.6833,27.7054C43.1824,28.0049 43.7228,28.1547 44.3044,28.1547C45.0119,28.1547 45.6108,27.9507 46.1013,27.5427C46.5917,27.1347 46.9238,26.5292 47.0974,25.7263zM56.7263,25.7263L57.9893,26.0453C57.7245,27.0826 57.2482,27.8736 56.5603,28.4183C55.8723,28.963 55.0314,29.2354 54.0375,29.2354C53.0088,29.2354 52.1722,29.026 51.5277,28.6071C50.8832,28.1883 50.3927,27.5817 50.0564,26.7875C49.72,25.9932 49.5518,25.1403 49.5518,24.2289C49.5518,23.235 49.7417,22.368 50.1215,21.628C50.5012,20.8879 51.0416,20.3259 51.7425,19.9418C52.4435,19.5577 53.215,19.3656 54.057,19.3656C55.0119,19.3656 55.8148,19.6086 56.4659,20.0948C57.1169,20.5809 57.5705,21.2645 57.8265,22.1455L56.583,22.4385C56.3617,21.7441 56.0405,21.2384 55.6195,20.9216C55.1985,20.6047 54.669,20.4463 54.031,20.4463C53.2975,20.4463 52.6844,20.6221 52.1918,20.9737C51.6991,21.3252 51.353,21.7972 51.1534,22.3897C50.9537,22.9821 50.8539,23.593 50.8539,24.2224C50.8539,25.034 50.9721,25.7425 51.2087,26.348C51.4452,26.9535 51.8131,27.406 52.3122,27.7054C52.8113,28.0049 53.3517,28.1547 53.9333,28.1547C54.6408,28.1547 55.2397,27.9507 55.7302,27.5427C56.2206,27.1347 56.5527,26.5292 56.7263,25.7263z" />
  </g>
  <g id="Rectangle8" transform="matrix(1,0,0,1,752.0432,326.8074)">
    <rect x="0" y="0" width="88.0133" height="47.7689" style="stroke:#000000;stroke-linecap:round;stroke-linejoin:round;stroke-width:4;fill:#FFFFFF;" />
    <path d="M27.5581,21.5179L26.3927,21.6091C26.2886,21.149 26.141,20.8148 25.95,20.6065C25.6332,20.2723 25.2426,20.1052 24.7781,20.1052C24.4049,20.1052 24.0772,20.2093 23.7951,20.4177C23.4261,20.6868 23.1353,21.0796 22.9227,21.596C22.71,22.1125 22.5993,22.8482 22.5906,23.8031C22.8728,23.3734 23.2178,23.0544 23.6258,22.846C24.0338,22.6377 24.4613,22.5335 24.9084,22.5335C25.6896,22.5335 26.3547,22.8211 26.9038,23.3962C27.4528,23.9713 27.7274,24.7145 27.7274,25.626C27.7274,26.225 27.5982,26.7816 27.34,27.2959C27.0817,27.8102 26.7269,28.2041 26.2755,28.4776C25.8242,28.751 25.312,28.8877 24.7391,28.8877C23.7625,28.8877 22.9661,28.5286 22.3498,27.8102C21.7334,27.0919 21.4253,25.9081 21.4253,24.2588C21.4253,22.4142 21.766,21.073 22.4474,20.2354C23.042,19.5062 23.8428,19.1416 24.8498,19.1416C25.6006,19.1416 26.2159,19.3521 26.6955,19.7731C27.1751,20.1941 27.4626,20.7757 27.5581,21.5179zM22.7729,25.6325C22.7729,26.0362 22.8587,26.4224 23.0301,26.7914C23.2015,27.1603 23.4413,27.4413 23.7495,27.6345C24.0577,27.8276 24.381,27.9242 24.7195,27.9242C25.2143,27.9242 25.6397,27.7245 25.9956,27.3252C26.3515,26.9259 26.5294,26.3834 26.5294,25.6976C26.5294,25.0379 26.3537,24.5181 26.0021,24.1384C25.6505,23.7586 25.2078,23.5687 24.674,23.5687C24.1445,23.5687 23.6952,23.7586 23.3263,24.1384C22.9574,24.5181 22.7729,25.0162 22.7729,25.6325zM32.4669,25.8604L32.4669,24.682L36.0672,24.682L36.0672,25.8604zM41.2365,28.725L41.2365,19.1807L45.4682,19.1807C46.3189,19.1807 46.9656,19.2664 47.4084,19.4378C47.8511,19.6093 48.2048,19.912 48.4696,20.346C48.7343,20.7801 48.8667,21.2597 48.8667,21.7849C48.8667,22.4619 48.6475,23.0327 48.2091,23.4971C47.7708,23.9615 47.0937,24.2566 46.1779,24.3825C46.5121,24.5431 46.766,24.7015 46.9396,24.8578C47.3085,25.1963 47.6579,25.6195 47.9878,26.1273L49.6479,28.725L48.0594,28.725L46.7964,26.7393C46.4274,26.1664 46.1236,25.728 45.8849,25.4242C45.6462,25.1204 45.4324,24.9077 45.2436,24.7862C45.0548,24.6646 44.8628,24.58 44.6675,24.5322C44.5242,24.5019 44.2899,24.4867 43.9643,24.4867L42.4995,24.4867L42.4995,28.725zM42.4995,23.3929L45.2143,23.3929C45.7916,23.3929 46.243,23.3332 46.5685,23.2139C46.894,23.0945 47.1414,22.9036 47.3107,22.641C47.48,22.3784 47.5646,22.093 47.5646,21.7849C47.5646,21.3335 47.4008,20.9624 47.0731,20.6716C46.7454,20.3808 46.2278,20.2354 45.5203,20.2354L42.4995,20.2354zM50.4162,25.6585L51.6076,25.5544C51.664,26.0318 51.7953,26.4235 52.0014,26.7295C52.2076,27.0355 52.5277,27.2829 52.9617,27.4717C53.3958,27.6605 53.884,27.7549 54.4266,27.7549C54.9083,27.7549 55.3337,27.6833 55.7026,27.5401C56.0715,27.3968 56.3461,27.2004 56.5262,26.9509C56.7063,26.7013 56.7964,26.4289 56.7964,26.1338C56.7964,25.8343 56.7096,25.5728 56.536,25.3493C56.3623,25.1258 56.0759,24.9381 55.6766,24.7862C55.4205,24.6863 54.8541,24.5312 53.9774,24.3207C53.1006,24.1102 52.4865,23.9116 52.1349,23.725C51.6792,23.4862 51.3396,23.19 51.116,22.8363C50.8925,22.4826 50.7807,22.0865 50.7807,21.6481C50.7807,21.1664 50.9175,20.7161 51.1909,20.2972C51.4643,19.8784 51.8636,19.5605 52.3888,19.3434C52.914,19.1264 53.4978,19.0179 54.1401,19.0179C54.8476,19.0179 55.4715,19.1319 56.0119,19.3597C56.5522,19.5876 56.9678,19.9229 57.2586,20.3656C57.5494,20.8083 57.7057,21.3096 57.7274,21.8695L56.5164,21.9606C56.4513,21.3573 56.231,20.9016 55.8556,20.5934C55.4802,20.2853 54.9257,20.1312 54.1922,20.1312C53.4283,20.1312 52.8717,20.2712 52.5223,20.5511C52.1729,20.8311 51.9982,21.1685 51.9982,21.5635C51.9982,21.9064 52.1219,22.1885 52.3693,22.4099C52.6123,22.6312 53.2471,22.858 54.2736,23.0902C55.3001,23.3224 56.0043,23.5253 56.3862,23.6989C56.9418,23.955 57.3519,24.2794 57.6167,24.6722C57.8814,25.065 58.0138,25.5175 58.0138,26.0296C58.0138,26.5375 57.8684,27.016 57.5776,27.4652C57.2868,27.9144 56.8691,28.2638 56.3244,28.5134C55.7797,28.7629 55.1666,28.8877 54.4852,28.8877C53.6215,28.8877 52.8977,28.7618 52.3139,28.5101C51.7302,28.2584 51.2723,27.8797 50.9403,27.374C50.6082,26.8684 50.4335,26.2966 50.4162,25.6585zM62.1675,28.725L62.1675,20.307L59.0229,20.307L59.0229,19.1807L66.588,19.1807L66.588,20.307L63.4305,20.307L63.4305,28.725z" />
  </g>
  <g id="Rectangle9" transform="matrix(1,0,0,1,752.0432,441.6222)">
    <rect x="0" y="0" width="88.0133" height="49.7249" style="stroke:#000000;stroke-linecap:round;stroke-linejoin:round;stroke-width:4;fill:#FFFFFF;" />
    <path d="M14.5926,27.2029L15.8231,27.0988C15.9142,27.6977 16.1258,28.148 16.4578,28.4497C16.7899,28.7513 17.1903,28.9021 17.659,28.9021C18.2232,28.9021 18.7007,28.6895 19.0913,28.2641C19.4819,27.8388 19.6772,27.2745 19.6772,26.5714C19.6772,25.903 19.4895,25.3757 19.1141,24.9894C18.7386,24.6031 18.2471,24.41 17.6395,24.41C17.2619,24.41 16.9212,24.4957 16.6173,24.6671C16.3135,24.8386 16.0748,25.061 15.9012,25.3344L14.8009,25.1912L15.7254,20.2889L20.4715,20.2889L20.4715,21.4086L16.6629,21.4086L16.1486,23.9738C16.7215,23.5744 17.3226,23.3748 17.952,23.3748C18.7853,23.3748 19.4884,23.6634 20.0613,24.2407C20.6343,24.8179 20.9207,25.5601 20.9207,26.4672C20.9207,27.331 20.669,28.0775 20.1655,28.7068C19.5535,29.4794 18.718,29.8657 17.659,29.8657C16.7909,29.8657 16.0824,29.6226 15.5334,29.1365C14.9843,28.6504 14.6707,28.0059 14.5926,27.2029zM25.5822,26.8383L25.5822,25.66L29.1824,25.66L29.1824,26.8383zM38.7983,25.9594L38.7983,24.8396L42.8413,24.8331L42.8413,28.3748C42.2206,28.8696 41.5804,29.2418 40.9207,29.4913C40.261,29.7409 39.5839,29.8657 38.8895,29.8657C37.952,29.8657 37.1002,29.6649 36.3341,29.2635C35.5681,28.862 34.9897,28.2815 34.5991,27.5219C34.2085,26.7624 34.0132,25.9139 34.0132,24.9764C34.0132,24.0475 34.2074,23.1806 34.5959,22.3754C34.9843,21.5703 35.5431,20.9725 36.2723,20.5818C37.0015,20.1912 37.8413,19.9959 38.7918,19.9959C39.4819,19.9959 40.1058,20.1077 40.6636,20.3312C41.2213,20.5547 41.6586,20.8661 41.9754,21.2654C42.2923,21.6647 42.5331,22.1856 42.6981,22.8279L41.5587,23.1404C41.4155,22.6543 41.2376,22.2724 41.0249,21.9946C40.8122,21.7168 40.5084,21.4944 40.1134,21.3273C39.7185,21.1602 39.2801,21.0766 38.7983,21.0766C38.2211,21.0766 37.7219,21.1645 37.3009,21.3403C36.8799,21.5161 36.5403,21.7472 36.2821,22.0336C36.0238,22.3201 35.8231,22.6348 35.6798,22.9777C35.4368,23.5679 35.3153,24.2081 35.3153,24.8982C35.3153,25.7489 35.4617,26.4607 35.7547,27.0336C36.0477,27.6066 36.4741,28.0319 37.034,28.3097C37.5939,28.5875 38.1885,28.7264 38.8179,28.7264C39.3647,28.7264 39.8986,28.6211 40.4194,28.4106C40.9403,28.2001 41.3352,27.9755 41.6043,27.7368L41.6043,25.9594zM44.7033,29.7029L44.7033,20.1586L48.3035,20.1586C48.9372,20.1586 49.4212,20.189 49.7554,20.2498C50.2241,20.3279 50.6169,20.4766 50.9337,20.6958C51.2506,20.9149 51.5056,21.222 51.6987,21.617C51.8919,22.0119 51.9884,22.446 51.9884,22.9191C51.9884,23.7307 51.7302,24.4175 51.2137,24.9796C50.6972,25.5417 49.764,25.8227 48.4142,25.8227L45.9663,25.8227L45.9663,29.7029zM45.9663,24.6964L48.4337,24.6964C49.2497,24.6964 49.8291,24.5445 50.172,24.2407C50.5149,23.9369 50.6863,23.5093 50.6863,22.9581C50.6863,22.5588 50.5854,22.217 50.3836,21.9327C50.1818,21.6485 49.9159,21.4607 49.5861,21.3696C49.3734,21.3132 48.9806,21.285 48.4077,21.285L45.9663,21.285zM53.8113,29.7029L53.8113,20.1586L55.0744,20.1586L55.0744,29.7029zM56.9168,25.0545C56.9168,23.4703 57.3422,22.23 58.1929,21.3338C59.0435,20.4375 60.1416,19.9894 61.4871,19.9894C62.3682,19.9894 63.1625,20.1999 63.8699,20.6209C64.5774,21.0419 65.1167,21.6289 65.4878,22.382C65.8589,23.135 66.0444,23.9889 66.0444,24.9438C66.0444,25.9117 65.8491,26.7776 65.4585,27.5415C65.0679,28.3054 64.5145,28.8837 63.7983,29.2765C63.0822,29.6693 62.3096,29.8657 61.4806,29.8657C60.5822,29.8657 59.7792,29.6487 59.0718,29.2146C58.3643,28.7806 57.8283,28.1882 57.4637,27.4373C57.0991,26.6864 56.9168,25.8922 56.9168,25.0545zM58.2189,25.074C58.2189,26.2242 58.5281,27.1302 59.1466,27.7921C59.7651,28.454 60.5409,28.785 61.4741,28.785C62.4246,28.785 63.207,28.4508 63.8211,27.7823C64.4353,27.1139 64.7423,26.1656 64.7423,24.9373C64.7423,24.1604 64.611,23.4822 64.3485,22.9028C64.0859,22.3234 63.7018,21.8741 63.1961,21.5551C62.6905,21.2361 62.123,21.0766 61.4936,21.0766C60.5995,21.0766 59.8302,21.3837 59.1857,21.9978C58.5412,22.612 58.2189,23.6374 58.2189,25.074zM67.1968,24.9959C67.1968,23.8674 67.3129,22.9592 67.5451,22.2713C67.7773,21.5833 68.1223,21.0527 68.5802,20.6795C69.0381,20.3062 69.6143,20.1196 70.3087,20.1196C70.8209,20.1196 71.2701,20.2227 71.6564,20.4288C72.0427,20.635 72.3617,20.9323 72.6134,21.3208C72.8652,21.7092 73.0626,22.1823 73.2059,22.74C73.3491,23.2978 73.4207,24.0497 73.4207,24.9959C73.4207,26.1157 73.3057,27.0195 73.0757,27.7075C72.8456,28.3954 72.5017,28.9271 72.0438,29.3025C71.5859,29.678 71.0075,29.8657 70.3087,29.8657C69.3886,29.8657 68.6659,29.5358 68.1408,28.8761C67.5114,28.0818 67.1968,26.7884 67.1968,24.9959zM68.4012,24.9959C68.4012,26.5627 68.5846,27.6055 68.9513,28.1241C69.3181,28.6428 69.7705,28.9021 70.3087,28.9021C70.8469,28.9021 71.2994,28.6417 71.6662,28.1209C72.0329,27.6001 72.2163,26.5584 72.2163,24.9959C72.2163,23.4247 72.0329,22.3809 71.6662,21.8644C71.2994,21.3479 70.8426,21.0896 70.2957,21.0896C69.7575,21.0896 69.3278,21.3175 69.0067,21.7732C68.603,22.3548 68.4012,23.4291 68.4012,24.9959z" />
  </g>
  <g id="Rectangle10" transform="matrix(1,0,0,1,752.0432,533.1818)">
    <rect x="0" y="0" width="88.0133" height="51.7559" style="stroke:#000000;stroke-linecap:round;stroke-linejoin:round;stroke-width:4;fill:#FFFFFF;" />
    <path d="M14.6284,28.1989L15.8003,28.0427C15.9348,28.7067 16.1638,29.1853 16.4871,29.4782C16.8105,29.7712 17.2044,29.9177 17.6688,29.9177C18.22,29.9177 18.6855,29.7267 19.0653,29.3448C19.445,28.9628 19.6349,28.4897 19.6349,27.9255C19.6349,27.3873 19.4591,26.9435 19.1076,26.5941C18.756,26.2447 18.309,26.07 17.7664,26.07C17.5451,26.07 17.2695,26.1134 16.9396,26.2002L17.0698,25.1716C17.1479,25.1803 17.2109,25.1846 17.2586,25.1846C17.7577,25.1846 18.207,25.0544 18.6063,24.794C19.0056,24.5336 19.2052,24.1321 19.2052,23.5895C19.2052,23.1599 19.0598,22.804 18.769,22.5218C18.4782,22.2397 18.1028,22.0987 17.6427,22.0987C17.187,22.0987 16.8072,22.2419 16.5034,22.5284C16.1996,22.8148 16.0043,23.2445 15.9175,23.8174L14.7456,23.6091C14.8888,22.8235 15.2143,22.2148 15.7222,21.7829C16.23,21.3511 16.8615,21.1351 17.6167,21.1351C18.1375,21.1351 18.6171,21.2469 19.0555,21.4704C19.4939,21.6939 19.8291,21.9988 20.0614,22.3851C20.2936,22.7714 20.4097,23.1816 20.4097,23.6156C20.4097,24.0279 20.299,24.4034 20.0776,24.7419C19.8563,25.0804 19.5286,25.3495 19.0946,25.5492C19.6588,25.6794 20.0972,25.9496 20.4097,26.3597C20.7222,26.7699 20.8784,27.2831 20.8784,27.8994C20.8784,28.7328 20.5746,29.4392 19.967,30.0186C19.3593,30.598 18.5911,30.8877 17.6623,30.8877C16.8246,30.8877 16.1291,30.6382 15.5757,30.139C15.0223,29.6399 14.7065,28.9932 14.6284,28.1989zM25.6115,27.8539L25.6115,26.6755L29.2117,26.6755L29.2117,27.8539zM38.8276,26.975L38.8276,25.8552L42.8706,25.8487L42.8706,29.3903C42.2499,29.8851 41.6097,30.2573 40.95,30.5069C40.2903,30.7564 39.6132,30.8812 38.9188,30.8812C37.9813,30.8812 37.1295,30.6805 36.3634,30.279C35.5974,29.8775 35.019,29.297 34.6284,28.5375C34.2378,27.7779 34.0425,26.9294 34.0425,25.9919C34.0425,25.0631 34.2367,24.1961 34.6252,23.391C35.0136,22.5859 35.5724,21.988 36.3016,21.5974C37.0308,21.2067 37.8706,21.0114 38.8211,21.0114C39.5112,21.0114 40.1351,21.1232 40.6929,21.3467C41.2506,21.5702 41.6879,21.8816 42.0047,22.281C42.3215,22.6803 42.5624,23.2011 42.7274,23.8435L41.588,24.156C41.4448,23.6698 41.2669,23.2879 41.0542,23.0101C40.8415,22.7323 40.5377,22.5099 40.1427,22.3428C39.7478,22.1757 39.3094,22.0922 38.8276,22.0922C38.2504,22.0922 37.7512,22.18 37.3302,22.3558C36.9092,22.5316 36.5696,22.7627 36.3114,23.0492C36.0531,23.3356 35.8524,23.6503 35.7091,23.9932C35.4661,24.5835 35.3446,25.2237 35.3446,25.9138C35.3446,26.7645 35.491,27.4763 35.784,28.0492C36.077,28.6221 36.5034,29.0474 37.0633,29.3252C37.6232,29.603 38.2178,29.7419 38.8472,29.7419C39.394,29.7419 39.9279,29.6366 40.4487,29.4261C40.9696,29.2156 41.3645,28.991 41.6336,28.7523L41.6336,26.975zM44.7326,30.7185L44.7326,21.1742L48.3328,21.1742C48.9665,21.1742 49.4505,21.2046 49.7847,21.2653C50.2534,21.3435 50.6462,21.4921 50.963,21.7113C51.2799,21.9305 51.5349,22.2376 51.728,22.6325C51.9212,23.0275 52.0177,23.4615 52.0177,23.9346C52.0177,24.7462 51.7595,25.4331 51.243,25.9951C50.7265,26.5572 49.7933,26.8382 48.4435,26.8382L45.9956,26.8382L45.9956,30.7185zM45.9956,25.7119L48.463,25.7119C49.279,25.7119 49.8584,25.56 50.2013,25.2562C50.5442,24.9524 50.7156,24.5249 50.7156,23.9737C50.7156,23.5744 50.6147,23.2326 50.4129,22.9483C50.2111,22.664 49.9452,22.4763 49.6154,22.3851C49.4027,22.3287 49.0099,22.3005 48.437,22.3005L45.9956,22.3005zM53.8406,30.7185L53.8406,21.1742L55.1037,21.1742L55.1037,30.7185zM56.9461,26.07C56.9461,24.4858 57.3715,23.2456 58.2222,22.3493C59.0728,21.453 60.1709,21.0049 61.5164,21.0049C62.3975,21.0049 63.1918,21.2154 63.8992,21.6364C64.6067,22.0574 65.146,22.6445 65.5171,23.3975C65.8882,24.1505 66.0737,25.0045 66.0737,25.9593C66.0737,26.9272 65.8784,27.7931 65.4878,28.557C65.0971,29.3209 64.5438,29.8992 63.8276,30.292C63.1115,30.6848 62.3389,30.8812 61.5099,30.8812C60.6115,30.8812 59.8085,30.6642 59.1011,30.2302C58.3936,29.7961 57.8576,29.2037 57.493,28.4528C57.1284,27.702 56.9461,26.9077 56.9461,26.07zM58.2482,26.0895C58.2482,27.2397 58.5574,28.1458 59.1759,28.8076C59.7944,29.4695 60.5702,29.8005 61.5034,29.8005C62.4539,29.8005 63.2363,29.4663 63.8504,28.7979C64.4646,28.1295 64.7716,27.1811 64.7716,25.9528C64.7716,25.1759 64.6403,24.4978 64.3778,23.9183C64.1152,23.3389 63.731,22.8897 63.2254,22.5707C62.7198,22.2517 62.1523,22.0922 61.5229,22.0922C60.6288,22.0922 59.8595,22.3992 59.215,23.0134C58.5705,23.6275 58.2482,24.6529 58.2482,26.0895zM73.3849,29.5922L73.3849,30.7185L67.0763,30.7185C67.0676,30.4363 67.1132,30.1651 67.213,29.9047C67.3736,29.475 67.6308,29.0518 67.9845,28.6351C68.3383,28.2185 68.8493,27.7367 69.5177,27.1898C70.5551,26.3391 71.256,25.6653 71.6206,25.1683C71.9852,24.6714 72.1675,24.2015 72.1675,23.7588C72.1675,23.2944 72.0014,22.9027 71.6694,22.5837C71.3374,22.2647 70.9044,22.1052 70.3706,22.1052C69.8064,22.1052 69.355,22.2744 69.0164,22.613C68.6779,22.9515 68.5064,23.4203 68.5021,24.0192L67.2977,23.8955C67.3801,22.9971 67.6905,22.3124 68.2287,21.8415C68.7669,21.3706 69.4895,21.1351 70.3966,21.1351C71.3124,21.1351 72.0373,21.389 72.5711,21.8968C73.105,22.4047 73.3719,23.034 73.3719,23.7849C73.3719,24.1668 73.2938,24.5422 73.1375,24.9112C72.9813,25.2801 72.7219,25.6685 72.3595,26.0765C71.9971,26.4845 71.3949,27.0444 70.5529,27.7562C69.8498,28.3465 69.3984,28.7469 69.1987,28.9574C68.9991,29.1679 68.8341,29.3795 68.7039,29.5922z" />
  </g>
  <g id="Rectangle11" transform="matrix(-0.0018,-1,1,-0.0018,644.3783,655.7848)">
    <rect x="0" y="0" width="69.6671" height="46.8085" style="stroke:#000000;stroke-linecap:round;stroke-linejoin:round;stroke-width:4;fill:#FFFFFF;" />
    <path d="M14.9833,28.2448L13.8114,28.2448L13.8114,20.7773C13.5293,21.0464 13.1593,21.3155 12.7014,21.5846C12.2435,21.8537 11.8323,22.0555 11.4677,22.1901L11.4677,21.0573C12.1231,20.7491 12.696,20.3758 13.1864,19.9375C13.6769,19.4991 14.0241,19.0738 14.2281,18.6614L14.9833,18.6614zM21.5588,25.3802L21.5588,24.2018L25.1591,24.2018L25.1591,25.3802zM34.775,24.5013L34.775,23.3815L38.8179,23.375L38.8179,26.9166C38.1973,27.4114 37.5571,27.7836 36.8974,28.0332C36.2376,28.2827 35.5606,28.4075 34.8661,28.4075C33.9286,28.4075 33.0768,28.2068 32.3108,27.8053C31.5447,27.4038 30.9664,26.8233 30.5758,26.0638C30.1851,25.3042 29.9898,24.4557 29.9898,23.5182C29.9898,22.5894 30.184,21.7224 30.5725,20.9173C30.961,20.1122 31.5198,19.5143 32.2489,19.1237C32.9781,18.733 33.8179,18.5377 34.7685,18.5377C35.4586,18.5377 36.0825,18.6495 36.6402,18.873C37.1979,19.0965 37.6352,19.408 37.9521,19.8073C38.2689,20.2066 38.5098,20.7274 38.6747,21.3698L37.5354,21.6823C37.3922,21.1961 37.2142,20.8142 37.0015,20.5364C36.7889,20.2586 36.485,20.0362 36.0901,19.8691C35.6951,19.702 35.2567,19.6185 34.775,19.6185C34.1977,19.6185 33.6986,19.7063 33.2776,19.8821C32.8566,20.0579 32.5169,20.289 32.2587,20.5755C32.0004,20.8619 31.7997,21.1766 31.6565,21.5195C31.4134,22.1098 31.2919,22.75 31.2919,23.4401C31.2919,24.2908 31.4384,25.0026 31.7314,25.5755C32.0243,26.1484 32.4508,26.5737 33.0106,26.8515C33.5705,27.1293 34.1652,27.2682 34.7945,27.2682C35.3414,27.2682 35.8752,27.1629 36.3961,26.9524C36.9169,26.7419 37.3119,26.5173 37.581,26.2786L37.581,24.5013zM40.6669,28.2448L40.6669,18.7005L41.9625,18.7005L46.9755,26.194L46.9755,18.7005L48.1864,18.7005L48.1864,28.2448L46.8909,28.2448L41.8778,20.7448L41.8778,28.2448zM50.3088,28.2448L50.3088,18.7005L53.5966,18.7005C54.3388,18.7005 54.9052,18.7461 55.2958,18.8372C55.8427,18.9631 56.3093,19.1909 56.6955,19.5208C57.199,19.9461 57.5755,20.4898 57.8251,21.1517C58.0747,21.8136 58.1994,22.5698 58.1994,23.4205C58.1994,24.1454 58.1148,24.7877 57.9455,25.3476C57.7763,25.9075 57.5593,26.3708 57.2945,26.7376C57.0297,27.1043 56.74,27.393 56.4254,27.6035C56.1107,27.814 55.7309,27.9735 55.286,28.082C54.8412,28.1905 54.3301,28.2448 53.7528,28.2448zM51.5718,27.1185L53.6096,27.1185C54.2389,27.1185 54.7327,27.0599 55.0907,26.9427C55.4488,26.8255 55.7342,26.6606 55.9468,26.4479C56.2463,26.1484 56.4796,25.7458 56.6467,25.2402C56.8138,24.7346 56.8974,24.1215 56.8974,23.401C56.8974,22.4027 56.7335,21.6356 56.4058,21.0996C56.0781,20.5635 55.6799,20.2044 55.2112,20.0221C54.8726,19.8919 54.3279,19.8268 53.5771,19.8268L51.5718,19.8268z" />
  </g>
  <g id="Rectangle12" transform="matrix(1,0,0,1,752.0432,229.1646)">
    <rect x="0" y="0" width="88.0133" height="47.7689" style="stroke:#000000;stroke-linecap:round;stroke-linejoin:round;stroke-width:4;fill:#FFFFFF;" />
    <path d="M16.3569,28.725L16.3569,26.4398L12.2163,26.4398L12.2163,25.3656L16.5718,19.1807L17.5288,19.1807L17.5288,25.3656L18.8179,25.3656L18.8179,26.4398L17.5288,26.4398L17.5288,28.725zM16.3569,25.3656L16.3569,21.0622L13.3686,25.3656zM23.59,25.8604L23.59,24.682L27.1903,24.682L27.1903,25.8604zM39.1499,25.3786L40.4129,25.6976C40.1482,26.7349 39.6718,27.526 38.9839,28.0707C38.2959,28.6154 37.455,28.8877 36.4611,28.8877C35.4324,28.8877 34.5959,28.6783 33.9513,28.2595C33.3068,27.8406 32.8163,27.2341 32.48,26.4398C32.1436,25.6455 31.9754,24.7927 31.9754,23.8812C31.9754,22.8873 32.1653,22.0203 32.5451,21.2803C32.9248,20.5403 33.4652,19.9782 34.1662,19.5941C34.8671,19.21 35.6386,19.0179 36.4806,19.0179C37.4355,19.0179 38.2384,19.261 38.8895,19.7471C39.5405,20.2332 39.9941,20.9168 40.2502,21.7979L39.0067,22.0908C38.7853,21.3964 38.4641,20.8908 38.0431,20.5739C37.6221,20.2571 37.0926,20.0987 36.4546,20.0987C35.7211,20.0987 35.108,20.2744 34.6154,20.626C34.1228,20.9776 33.7766,21.4496 33.577,22.042C33.3773,22.6345 33.2775,23.2454 33.2775,23.8747C33.2775,24.6863 33.3958,25.3949 33.6323,26.0003C33.8689,26.6058 34.2367,27.0583 34.7358,27.3578C35.235,27.6572 35.7753,27.807 36.3569,27.807C37.0644,27.807 37.6633,27.603 38.1538,27.195C38.6442,26.787 38.9763,26.1816 39.1499,25.3786zM42.008,28.725L42.008,19.1807L43.271,19.1807L43.271,23.1L48.2319,23.1L48.2319,19.1807L49.4949,19.1807L49.4949,28.725L48.2319,28.725L48.2319,24.2263L43.271,24.2263L43.271,28.725zM50.3673,31.3747L50.3673,30.5283L58.1343,30.5283L58.1343,31.3747zM59.0132,28.725L59.0132,19.1807L62.6134,19.1807C63.2471,19.1807 63.731,19.2111 64.0653,19.2718C64.534,19.35 64.9268,19.4986 65.2436,19.7178C65.5605,19.937 65.8155,20.2441 66.0086,20.639C66.2018,21.034 66.2983,21.468 66.2983,21.9411C66.2983,22.7527 66.0401,23.4396 65.5236,24.0016C65.0071,24.5637 64.0739,24.8447 62.7241,24.8447L60.2762,24.8447L60.2762,28.725zM60.2762,23.7184L62.7436,23.7184C63.5596,23.7184 64.139,23.5665 64.4819,23.2627C64.8248,22.9589 64.9962,22.5314 64.9962,21.9802C64.9962,21.5809 64.8953,21.2391 64.6935,20.9548C64.4917,20.6705 64.2258,20.4828 63.896,20.3916C63.6833,20.3352 63.2905,20.307 62.7176,20.307L60.2762,20.307zM67.9064,28.725L67.9064,19.1807L71.1942,19.1807C71.9363,19.1807 72.5028,19.2263 72.8934,19.3174C73.4403,19.4433 73.9068,19.6711 74.2931,20.001C74.7966,20.4263 75.1731,20.97 75.4227,21.6319C75.6722,22.2937 75.797,23.05 75.797,23.9007C75.797,24.6256 75.7124,25.2679 75.5431,25.8278C75.3738,26.3877 75.1568,26.851 74.8921,27.2178C74.6273,27.5845 74.3376,27.8732 74.0229,28.0837C73.7083,28.2942 73.3285,28.4537 72.8836,28.5622C72.4387,28.6707 71.9277,28.725 71.3504,28.725zM69.1694,27.5987L71.2072,27.5987C71.8365,27.5987 72.3302,27.5401 72.6883,27.4229C73.0464,27.3057 73.3317,27.1408 73.5444,26.9281C73.8439,26.6286 74.0772,26.226 74.2443,25.7204C74.4114,25.2148 74.4949,24.6017 74.4949,23.8812C74.4949,22.8829 74.3311,22.1158 74.0034,21.5798C73.6757,21.0437 73.2775,20.6846 72.8087,20.5023C72.4702,20.3721 71.9255,20.307 71.1746,20.307L69.1694,20.307z" />
  </g>
  <g id="Rectangle13" transform="matrix(1,0,0,1,1139.168,284.9695)">
    <rect x="0" y="0" width="230.0917" height="263.4258" style="stroke:#000000;stroke-linecap:round;stroke-linejoin:round;stroke-width:4;fill:#FFFFFF;" />
    <path d="M31.4523,141.3878L31.4523,122.3112L38.6483,122.3112C39.9149,122.3112 40.8822,122.3719 41.5501,122.4934C42.4871,122.6496 43.2722,122.9467 43.9054,123.3848C44.5387,123.8229 45.0484,124.4366 45.4344,125.2261C45.8205,126.0155 46.0135,126.883 46.0135,127.8286C46.0135,129.4509 45.4973,130.8237 44.465,131.9471C43.4326,133.0706 41.5675,133.6323 38.8695,133.6323L33.9768,133.6323L33.9768,141.3878zM33.9768,131.3811L38.9086,131.3811C40.5395,131.3811 41.6976,131.0774 42.383,130.4702C43.0683,129.8629 43.411,129.0084 43.411,127.9067C43.411,127.1086 43.2093,126.4254 42.8059,125.8572C42.4025,125.289 41.8711,124.9138 41.2118,124.7316C40.7867,124.6188 40.0016,124.5624 38.8565,124.5624L33.9768,124.5624zM48.0565,134.4781C48.0565,131.9189 48.7679,130.0234 50.1906,128.7915C51.3791,127.7679 52.8278,127.256 54.5368,127.256C56.4367,127.256 57.9895,127.8785 59.1954,129.1234C60.4012,130.3682 61.0041,132.0881 61.0041,134.2829C61.0041,136.0613 60.7374,137.4602 60.2038,138.4795C59.6703,139.4988 58.8939,140.2904 57.8746,140.8543C56.8552,141.4182 55.7427,141.7001 54.5368,141.7001C52.6023,141.7001 51.0386,141.0799 49.8457,139.8393C48.6529,138.5988 48.0565,136.8117 48.0565,134.4781zM50.4638,134.4781C50.4638,136.2478 50.8499,137.5729 51.622,138.4535C52.3941,139.334 53.3657,139.7743 54.5368,139.7743C55.6993,139.7743 56.6666,139.3318 57.4386,138.447C58.2107,137.5621 58.5968,136.2131 58.5968,134.4C58.5968,132.691 58.2086,131.3963 57.4321,130.5157C56.6557,129.6352 55.6906,129.1949 54.5368,129.1949C53.3657,129.1949 52.3941,129.633 51.622,130.5092C50.8499,131.3854 50.4638,132.7084 50.4638,134.4781zM66.3003,141.3878L62.0712,127.5684L64.4915,127.5684L66.6907,135.5451L67.5105,138.512C67.5452,138.3645 67.7837,137.4146 68.2262,135.6622L70.4253,127.5684L72.8327,127.5684L74.9017,135.5842L75.5914,138.2258L76.3851,135.5582L78.7534,127.5684L81.0307,127.5684L76.7104,141.3878L74.2771,141.3878L72.0779,133.1118L71.5444,130.7565L68.7467,141.3878zM92.4558,136.9375L94.8762,137.2368C94.4945,138.6508 93.7874,139.7482 92.7551,140.529C91.7228,141.3098 90.4041,141.7001 88.7992,141.7001C86.7779,141.7001 85.1752,141.0777 83.9911,139.8328C82.8069,138.5879 82.2148,136.8421 82.2148,134.5952C82.2148,132.2703 82.8134,130.4658 84.0106,129.1819C85.2077,127.898 86.7606,127.256 88.6691,127.256C90.5169,127.256 92.0264,127.885 93.1975,129.1429C94.3687,130.4008 94.9542,132.1705 94.9542,134.4521C94.9542,134.5909 94.9499,134.7991 94.9412,135.0767L84.6352,135.0767C84.7219,136.5948 85.1513,137.7573 85.9234,138.5641C86.6955,139.3709 87.6585,139.7743 88.8122,139.7743C89.6711,139.7743 90.4041,139.5487 91.0114,139.0976C91.6187,138.6465 92.1001,137.9265 92.4558,136.9375zM84.7653,133.1508L92.4818,133.1508C92.3777,131.9883 92.0828,131.1165 91.597,130.5352C90.8509,129.633 89.8836,129.1819 88.6951,129.1819C87.6194,129.1819 86.715,129.5419 85.982,130.262C85.2489,130.982 84.8434,131.945 84.7653,133.1508zM97.791,141.3878L97.791,127.5684L99.8991,127.5684L99.8991,129.6634C100.4369,128.6831 100.9336,128.0368 101.389,127.7245C101.8445,127.4122 102.3454,127.256 102.892,127.256C103.6814,127.256 104.4839,127.5076 105.2993,128.0108L104.4925,130.1839C103.92,129.8456 103.3474,129.6764 102.7749,129.6764C102.263,129.6764 101.8033,129.8304 101.3955,130.1384C100.9878,130.4463 100.6972,130.8736 100.5237,131.4201C100.2634,132.2529 100.1333,133.1638 100.1333,134.1528L100.1333,141.3878zM114.3171,141.3878L114.3171,122.3112L118.1168,122.3112L122.6322,135.8184C123.0486,137.0763 123.3523,138.0175 123.5431,138.6422C123.76,137.9482 124.0983,136.9288 124.5581,135.5842L129.1256,122.3112L132.5219,122.3112L132.5219,141.3878L130.0885,141.3878L130.0885,125.4213L124.5451,141.3878L122.2679,141.3878L116.7505,125.148L116.7505,141.3878zM135.4237,134.4781C135.4237,131.9189 136.1351,130.0234 137.5578,128.7915C138.7463,127.7679 140.195,127.256 141.904,127.256C143.8039,127.256 145.3567,127.8785 146.5626,129.1234C147.7684,130.3682 148.3714,132.0881 148.3714,134.2829C148.3714,136.0613 148.1046,137.4602 147.5711,138.4795C147.0375,139.4988 146.2611,140.2904 145.2418,140.8543C144.2225,141.4182 143.1099,141.7001 141.904,141.7001C139.9695,141.7001 138.4058,141.0799 137.213,139.8393C136.0201,138.5988 135.4237,136.8117 135.4237,134.4781zM137.8311,134.4781C137.8311,136.2478 138.2171,137.5729 138.9892,138.4535C139.7613,139.334 140.7329,139.7743 141.904,139.7743C143.0665,139.7743 144.0338,139.3318 144.8059,138.447C145.5779,137.5621 145.964,136.2131 145.964,134.4C145.964,132.691 145.5758,131.3963 144.7994,130.5157C144.0229,129.6352 143.0578,129.1949 141.904,129.1949C140.7329,129.1949 139.7613,129.633 138.9892,130.5092C138.2171,131.3854 137.8311,132.7084 137.8311,134.4781zM160.0828,141.3878L160.0828,139.6441C159.2066,141.0148 157.9183,141.7001 156.218,141.7001C155.1163,141.7001 154.1034,141.3965 153.1795,140.7892C152.2556,140.182 151.5399,139.334 151.0324,138.2453C150.5249,137.1565 150.2712,135.9052 150.2712,134.4911C150.2712,133.1118 150.5011,131.8604 150.9609,130.7369C151.4207,129.6135 152.1103,128.7525 153.0299,128.1539C153.9494,127.5553 154.9774,127.256 156.1139,127.256C156.9467,127.256 157.6884,127.4317 158.3391,127.7831C158.9897,128.1344 159.5189,128.592 159.9266,129.1559L159.9266,122.3112L162.2559,122.3112L162.2559,141.3878zM152.6785,134.4911C152.6785,136.2608 153.0516,137.5838 153.7976,138.46C154.5437,139.3362 155.4242,139.7743 156.4392,139.7743C157.4629,139.7743 158.3326,139.3557 159.0483,138.5185C159.764,137.6814 160.1218,136.404 160.1218,134.6863C160.1218,132.7951 159.7574,131.4071 159.0287,130.5222C158.3,129.6374 157.4021,129.1949 156.3351,129.1949C155.2941,129.1949 154.4244,129.62 153.7261,130.4702C153.0277,131.3203 152.6785,132.6606 152.6785,134.4911zM174.9953,141.3878L174.9953,139.3578C173.9196,140.9194 172.4578,141.7001 170.61,141.7001C169.7946,141.7001 169.0333,141.544 168.3263,141.2317C167.6193,140.9194 167.0944,140.5268 166.7518,140.054C166.4091,139.5812 166.1684,139.0022 166.0296,138.3168C165.9341,137.8571 165.8864,137.1283 165.8864,136.1307L165.8864,127.5684L168.2287,127.5684L168.2287,135.2328C168.2287,136.456 168.2764,137.2802 168.3719,137.7052C168.5193,138.3212 168.8316,138.8048 169.3088,139.1562C169.7859,139.5075 170.3758,139.6832 171.0785,139.6832C171.7812,139.6832 172.4405,139.5032 173.0564,139.1431C173.6723,138.7831 174.1083,138.293 174.3642,137.6727C174.6201,137.0524 174.7481,136.1524 174.7481,134.9726L174.7481,127.5684L177.0904,127.5684L177.0904,141.3878zM180.7079,141.3878L180.7079,122.3112L183.0502,122.3112L183.0502,141.3878zM196.1409,136.9375L198.5613,137.2368C198.1796,138.6508 197.4726,139.7482 196.4402,140.529C195.4079,141.3098 194.0893,141.7001 192.4844,141.7001C190.4631,141.7001 188.8603,141.0777 187.6762,139.8328C186.492,138.5879 185.8999,136.8421 185.8999,134.5952C185.8999,132.2703 186.4985,130.4658 187.6957,129.1819C188.8929,127.898 190.4457,127.256 192.3542,127.256C194.202,127.256 195.7115,127.885 196.8827,129.1429C198.0538,130.4008 198.6394,132.1705 198.6394,134.4521C198.6394,134.5909 198.635,134.7991 198.6264,135.0767L188.3203,135.0767C188.4071,136.5948 188.8365,137.7573 189.6086,138.5641C190.3806,139.3709 191.3436,139.7743 192.4974,139.7743C193.3562,139.7743 194.0893,139.5487 194.6965,139.0976C195.3038,138.6465 195.7853,137.9265 196.1409,136.9375zM188.4504,133.1508L196.167,133.1508C196.0629,131.9883 195.7679,131.1165 195.2821,130.5352C194.536,129.633 193.5688,129.1819 192.3803,129.1819C191.3046,129.1819 190.4002,129.5419 189.6671,130.262C188.9341,130.982 188.5285,131.945 188.4504,133.1508z" />
  </g>
  <g id="Rectangle14" transform="matrix(-0.0019,-1,1,-0.0019,1224.9309,548.3953)">
    <rect x="0" y="0" width="77.9992" height="58.7139" style="stroke:#000000;stroke-linecap:round;stroke-linejoin:round;stroke-width:4;fill:#FFFFFF;" />
    <path d="M29.6799,30.454L29.6799,29.3342L33.7229,29.3277L33.7229,32.8693C33.1022,33.3641 32.462,33.7363 31.8023,33.9859C31.1426,34.2354 30.4655,34.3602 29.7711,34.3602C28.8336,34.3602 27.9818,34.1595 27.2157,33.758C26.4497,33.3565 25.8713,32.776 25.4807,32.0165C25.0901,31.2569 24.8948,30.4084 24.8948,29.4709C24.8948,28.5421 25.089,27.6751 25.4774,26.87C25.8659,26.0648 26.4247,25.467 27.1539,25.0763C27.883,24.6857 28.7229,24.4904 29.6734,24.4904C30.3635,24.4904 30.9874,24.6022 31.5452,24.8257C32.1029,25.0492 32.5402,25.3606 32.857,25.7599C33.1738,26.1592 33.4147,26.6801 33.5797,27.3224L32.4403,27.6349C32.2971,27.1488 32.1192,26.7669 31.9065,26.4891C31.6938,26.2113 31.39,25.9889 30.995,25.8218C30.6001,25.6547 30.1617,25.5711 29.6799,25.5711C29.1027,25.5711 28.6035,25.659 28.1825,25.8348C27.7615,26.0106 27.4219,26.2417 27.1636,26.5282C26.9054,26.8146 26.7047,27.1293 26.5614,27.4722C26.3184,28.0625 26.1968,28.7027 26.1968,29.3928C26.1968,30.2435 26.3433,30.9553 26.6363,31.5282C26.9293,32.1011 27.3557,32.5264 27.9156,32.8042C28.4755,33.082 29.0701,33.2209 29.6995,33.2209C30.2463,33.2209 30.7802,33.1156 31.301,32.9051C31.8218,32.6946 32.2168,32.47 32.4859,32.2313L32.4859,30.454zM35.5718,34.1974L35.5718,24.6532L36.8674,24.6532L41.8804,32.1467L41.8804,24.6532L43.0914,24.6532L43.0914,34.1974L41.7958,34.1974L36.7828,26.6974L36.7828,34.1974zM45.2138,34.1974L45.2138,24.6532L48.5015,24.6532C49.2437,24.6532 49.8101,24.6987 50.2008,24.7899C50.7476,24.9158 51.2142,25.1436 51.6005,25.4735C52.104,25.8988 52.4805,26.4425 52.73,27.1043C52.9796,27.7662 53.1044,28.5225 53.1044,29.3732C53.1044,30.0981 53.0198,30.7404 52.8505,31.3003C52.6812,31.8602 52.4642,32.3235 52.1995,32.6903C51.9347,33.057 51.645,33.3457 51.3303,33.5562C51.0156,33.7667 50.6359,33.9262 50.191,34.0347C49.7461,34.1432 49.235,34.1974 48.6578,34.1974zM46.4768,33.0711L48.5146,33.0711C49.1439,33.0711 49.6376,33.0125 49.9957,32.8954C50.3537,32.7782 50.6391,32.6132 50.8518,32.4006C51.1513,32.1011 51.3846,31.6985 51.5517,31.1929C51.7188,30.6872 51.8023,30.0742 51.8023,29.3537C51.8023,28.3554 51.6385,27.5883 51.3108,27.0523C50.9831,26.5162 50.5849,26.1571 50.1161,25.9748C49.7776,25.8446 49.2329,25.7795 48.482,25.7795L46.4768,25.7795z" />
  </g>
  <g id="Rectangle15" transform="matrix(-0.0019,-1,1,-0.0019,1166.0687,362.8805)">
    <rect x="0" y="0" width="77.7997" height="58.7143" style="stroke:#000000;stroke-linecap:round;stroke-linejoin:round;stroke-width:4;fill:#FFFFFF;" />
    <path d="M8.965,34.1976L5.267,24.6534L6.6342,24.6534L9.1147,31.587C9.3143,32.1425 9.4814,32.6633 9.616,33.1495C9.7636,32.6286 9.935,32.1078 10.1303,31.587L12.7084,24.6534L13.9975,24.6534L10.2605,34.1976zM21.9402,30.8513L23.2032,31.1703C22.9385,32.2076 22.4621,32.9986 21.7742,33.5433C21.0863,34.088 20.2453,34.3604 19.2514,34.3604C18.2228,34.3604 17.3862,34.151 16.7416,33.7321C16.0971,33.3133 15.6067,32.7067 15.2703,31.9125C14.9339,31.1182 14.7657,30.2653 14.7657,29.3539C14.7657,28.36 14.9556,27.493 15.3354,26.753C15.7152,26.013 16.2555,25.4509 16.9565,25.0668C17.6574,24.6827 18.4289,24.4906 19.2709,24.4906C20.2258,24.4906 21.0288,24.7337 21.6798,25.2198C22.3308,25.7059 22.7844,26.3895 23.0405,27.2705L21.797,27.5635C21.5756,26.8691 21.2545,26.3634 20.8334,26.0466C20.4124,25.7298 19.8829,25.5713 19.2449,25.5713C18.5114,25.5713 17.8983,25.7471 17.4057,26.0987C16.9131,26.4502 16.567,26.9222 16.3673,27.5147C16.1676,28.1071 16.0678,28.718 16.0678,29.3474C16.0678,30.159 16.1861,30.8676 16.4226,31.473C16.6592,32.0785 17.027,32.531 17.5262,32.8304C18.0253,33.1299 18.5656,33.2797 19.1472,33.2797C19.8547,33.2797 20.4537,33.0757 20.9441,32.6677C21.4346,32.2597 21.7666,31.6542 21.9402,30.8513zM31.5691,30.8513L32.8321,31.1703C32.5674,32.2076 32.091,32.9986 31.4031,33.5433C30.7152,34.088 29.8742,34.3604 28.8803,34.3604C27.8517,34.3604 27.0151,34.151 26.3706,33.7321C25.726,33.3133 25.2356,32.7067 24.8992,31.9125C24.5628,31.1182 24.3946,30.2653 24.3946,29.3539C24.3946,28.36 24.5845,27.493 24.9643,26.753C25.3441,26.013 25.8844,25.4509 26.5854,25.0668C27.2864,24.6827 28.0578,24.4906 28.8999,24.4906C29.8547,24.4906 30.6577,24.7337 31.3087,25.2198C31.9597,25.7059 32.4133,26.3895 32.6694,27.2705L31.4259,27.5635C31.2045,26.8691 30.8834,26.3634 30.4624,26.0466C30.0413,25.7298 29.5118,25.5713 28.8738,25.5713C28.1403,25.5713 27.5272,25.7471 27.0346,26.0987C26.542,26.4502 26.1959,26.9222 25.9962,27.5147C25.7966,28.1071 25.6967,28.718 25.6967,29.3474C25.6967,30.159 25.815,30.8676 26.0515,31.473C26.2881,32.0785 26.6559,32.531 27.1551,32.8304C27.6542,33.1299 28.1946,33.2797 28.7762,33.2797C29.4836,33.2797 30.0826,33.0757 30.573,32.6677C31.0635,32.2597 31.3955,31.6542 31.5691,30.8513zM37.4871,31.333L37.4871,30.1547L41.0874,30.1547L41.0874,31.333zM45.7683,31.6781L46.9402,31.5219C47.0748,32.1859 47.3037,32.6644 47.6271,32.9574C47.9504,33.2504 48.3443,33.3969 48.8087,33.3969C49.3599,33.3969 49.8254,33.2059 50.2052,32.8239C50.585,32.442 50.7749,31.9689 50.7749,31.4047C50.7749,30.8665 50.5991,30.4227 50.2475,30.0733C49.8959,29.7239 49.4489,29.5492 48.9064,29.5492C48.685,29.5492 48.4094,29.5926 48.0795,29.6794L48.2097,28.6508C48.2879,28.6594 48.3508,28.6638 48.3986,28.6638C48.8977,28.6638 49.3469,28.5336 49.7462,28.2732C50.1455,28.0127 50.3452,27.6113 50.3452,27.0687C50.3452,26.639 50.1998,26.2831 49.909,26.001C49.6182,25.7189 49.2427,25.5778 48.7827,25.5778C48.3269,25.5778 47.9472,25.7211 47.6433,26.0075C47.3395,26.294 47.1442,26.7237 47.0574,27.2966L45.8855,27.0883C46.0288,26.3027 46.3543,25.6939 46.8621,25.2621C47.3699,24.8302 48.0014,24.6143 48.7566,24.6143C49.2775,24.6143 49.7571,24.7261 50.1954,24.9496C50.6338,25.1731 50.9691,25.478 51.2013,25.8643C51.4335,26.2506 51.5496,26.6607 51.5496,27.0948C51.5496,27.5071 51.4389,27.8825 51.2176,28.2211C50.9962,28.5596 50.6685,28.8287 50.2345,29.0284C50.7987,29.1586 51.2371,29.4288 51.5496,29.8389C51.8621,30.2491 52.0183,30.7623 52.0183,31.3786C52.0183,32.212 51.7145,32.9183 51.1069,33.4978C50.4992,34.0772 49.731,34.3669 48.8022,34.3669C47.9645,34.3669 47.269,34.1173 46.7156,33.6182C46.1622,33.1191 45.8465,32.4724 45.7683,31.6781zM53.8347,34.1976L53.8347,32.863L55.1694,32.863L55.1694,34.1976zM56.8881,31.6781L58.06,31.5219C58.1946,32.1859 58.4235,32.6644 58.7469,32.9574C59.0702,33.2504 59.4641,33.3969 59.9285,33.3969C60.4797,33.3969 60.9452,33.2059 61.325,32.8239C61.7048,32.442 61.8946,31.9689 61.8946,31.4047C61.8946,30.8665 61.7189,30.4227 61.3673,30.0733C61.0157,29.7239 60.5687,29.5492 60.0262,29.5492C59.8048,29.5492 59.5292,29.5926 59.1993,29.6794L59.3295,28.6508C59.4077,28.6594 59.4706,28.6638 59.5183,28.6638C60.0175,28.6638 60.4667,28.5336 60.866,28.2732C61.2653,28.0127 61.465,27.6113 61.465,27.0687C61.465,26.639 61.3196,26.2831 61.0288,26.001C60.738,25.7189 60.3625,25.5778 59.9025,25.5778C59.4467,25.5778 59.0669,25.7211 58.7631,26.0075C58.4593,26.294 58.264,26.7237 58.1772,27.2966L57.0053,27.0883C57.1485,26.3027 57.4741,25.6939 57.9819,25.2621C58.4897,24.8302 59.1212,24.6143 59.8764,24.6143C60.3972,24.6143 60.8768,24.7261 61.3152,24.9496C61.7536,25.1731 62.0889,25.478 62.3211,25.8643C62.5533,26.2506 62.6694,26.6607 62.6694,27.0948C62.6694,27.5071 62.5587,27.8825 62.3373,28.2211C62.116,28.5596 61.7883,28.8287 61.3543,29.0284C61.9185,29.1586 62.3569,29.4288 62.6694,29.8389C62.9819,30.2491 63.1381,30.7623 63.1381,31.3786C63.1381,32.212 62.8343,32.9183 62.2267,33.4978C61.619,34.0772 60.8508,34.3669 59.922,34.3669C59.0843,34.3669 58.3888,34.1173 57.8354,33.6182C57.282,33.1191 56.9663,32.4724 56.8881,31.6781zM67.5001,34.1976L63.8022,24.6534L65.1694,24.6534L67.6498,31.587C67.8495,32.1425 68.0166,32.6633 68.1512,33.1495C68.2987,32.6286 68.4702,32.1078 68.6655,31.587L71.2436,24.6534L72.5327,24.6534L68.7957,34.1976z" />
  </g>
  <g id="Rectangle16" transform="matrix(-0.0019,-1,1,-0.0019,1275.3921,362.8953)">
    <rect x="0" y="0" width="77.7997" height="58.7143" style="stroke:#000000;stroke-linecap:round;stroke-linejoin:round;stroke-width:4;fill:#FFFFFF;" />
    <path d="M32.0607,34.1976L28.3627,24.6534L29.7299,24.6534L32.2104,31.587C32.4101,32.1425 32.5772,32.6633 32.7117,33.1495C32.8593,32.6286 33.0307,32.1078 33.226,31.587L35.8041,24.6534L37.0932,24.6534L33.3562,34.1976zM38.4409,34.1976L38.4409,24.6534L39.7039,24.6534L39.7039,34.1976zM41.9174,34.1976L41.9174,24.6534L43.213,24.6534L48.226,32.1469L48.226,24.6534L49.437,24.6534L49.437,34.1976L48.1414,34.1976L43.1284,26.6976L43.1284,34.1976z" />
  </g>
  <line id="Line" x1="174.015" y1="548.636" x2="174.015" y2="870.3436" style="stroke:#000000;stroke-linecap:round;stroke-linejoin:round;stroke-width:4;" />
  <line id="Line1" x1="668.7352" y1="655.7848" x2="668.7352" y2="868.5292" style="stroke:#000000;stroke-linecap:round;stroke-linejoin:round;stroke-width:4;" />
  <line id="Line2" x1="173.7989" y1="868.0002" x2="671.2432" y2="868.0002" style="stroke:#000000;stroke-linecap:round;stroke-linejoin:round;stroke-width:4;" />
  <line id="Line3" x1="669.0891" y1="868.0001" x2="1254.8614" y2="871.5216" style="stroke:#000000;stroke-linecap:round;stroke-linejoin:round;stroke-width:4;" />
  <line id="Line4" x1="1254.2138" y1="548.636" x2="1254.2138" y2="870.3436" style="stroke:#000000;stroke-linecap:round;stroke-linejoin:round;stroke-width:4;" />
  <line id="Line5" x1="667.7218" y1="163.0605" x2="667.7218" y2="50.5758" style="stroke:#000000;stroke-linecap:round;stroke-linejoin:round;stroke-width:4;" />
  <line id="Line6" x1="1195.352" y1="286.3631" x2="1195.1309" y2="54.0972" style="stroke:#000000;stroke-linecap:round;stroke-linejoin:round;stroke-width:4;" />
  <line id="Line7" x1="666.1489" y1="53.5309" x2="1193.337" y2="55.8247" style="stroke:#000000;stroke-linecap:round;stroke-linejoin:round;stroke-width:4;" />
  <line id="Line8" x1="1304.6754" y1="286.3631" x2="1304.0942" y2="171.8308" style="stroke:#000000;stroke-linecap:round;stroke-linejoin:round;stroke-width:4;" />
  <line id="Line9" x1="840.0107" y1="467.1613" x2="1008.771" y2="467.1613" style="stroke:#000000;stroke-linecap:round;stroke-linejoin:round;stroke-width:4;" />
  <line id="Line10" x1="1006.977" y1="467.1613" x2="1006.977" y2="871.5216" style="stroke:#000000;stroke-linecap:round;stroke-linejoin:round;stroke-width:4;" />
  <line id="Line11" x1="838.2167" y1="562.1055" x2="1050.961" y2="562.1055" style="stroke:#000000;stroke-linecap:round;stroke-linejoin:round;stroke-width:4;" />
  <line id="Line12" x1="1050.961" y1="562.1055" x2="1050.961" y2="54.0972" style="stroke:#000000;stroke-linecap:round;stroke-linejoin:round;stroke-width:4;" />
  <line id="Line13" x1="840.0566" y1="253.049" x2="971.8756" y2="253.049" style="stroke:#000000;stroke-linecap:round;stroke-linejoin:round;stroke-width:4;" />
  <line id="Line14" x1="972.6658" y1="254.2238" x2="974.3933" y2="55.6315" style="stroke:#000000;stroke-linecap:round;stroke-linejoin:round;stroke-width:4;" />
  <line id="Line15" x1="319.6442" y1="356.404" x2="398.7755" y2="356.404" style="stroke:#000000;stroke-linecap:round;stroke-linejoin:round;stroke-width:4;" />
  <line id="Line16" x1="395.2542" y1="358.198" x2="395.2542" y2="419.7224" style="stroke:#000000;stroke-linecap:round;stroke-linejoin:round;stroke-width:4;" />
  <line id="Line17" x1="395.2542" y1="419.7224" x2="498.9687" y2="419.7224" style="stroke:#000000;stroke-linecap:round;stroke-linejoin:round;stroke-width:4;" />
  <line id="Line18" x1="317.9168" y1="488.2895" x2="425.0862" y2="488.2895" style="stroke:#000000;stroke-linecap:round;stroke-linejoin:round;stroke-width:4;" />
  <line id="Line19" x1="425.0862" y1="486.4957" x2="425.0862" y2="312.4865" style="stroke:#000000;stroke-linecap:round;stroke-linejoin:round;stroke-width:4;" />
  <line id="Line20" x1="425.0862" y1="314.214" x2="495.4473" y2="314.214" style="stroke:#000000;stroke-linecap:round;stroke-linejoin:round;stroke-width:4;" />
  <line id="Line21" x1="838.2167" y1="351.1552" x2="943.7251" y2="351.1552" style="stroke:#000000;stroke-linecap:round;stroke-linejoin:round;stroke-width:4;" />
  <g id="Rectangle17" transform="matrix(1,0,0,1,76.4005,362.8805)">
    <rect x="0" y="0" width="61.5244" height="42.1901" style="stroke:#000000;stroke-linecap:round;stroke-linejoin:round;stroke-width:4;fill:#FFFFFF;" />
    <path d="M25.2837,22.5892L26.5467,22.9082C26.2819,23.9455 25.8056,24.7365 25.1177,25.2812C24.4297,25.8259 23.5888,26.0983 22.5949,26.0983C21.5662,26.0983 20.7296,25.8889 20.0851,25.47C19.4406,25.0512 18.9501,24.4446 18.6138,23.6504C18.2774,22.8561 18.1092,22.0032 18.1092,21.0918C18.1092,20.0979 18.2991,19.2309 18.6789,18.4909C19.0586,17.7509 19.599,17.1888 20.3,16.8047C21.0009,16.4206 21.7724,16.2285 22.6144,16.2285C23.5693,16.2285 24.3722,16.4716 25.0233,16.9577C25.6743,17.4438 26.1279,18.1274 26.3839,19.0084L25.1405,19.3014C24.9191,18.607 24.5979,18.1013 24.1769,17.7845C23.7559,17.4677 23.2264,17.3092 22.5884,17.3092C21.8549,17.3092 21.2418,17.485 20.7492,17.8366C20.2566,18.1881 19.9104,18.6601 19.7108,19.2526C19.5111,19.845 19.4113,20.4559 19.4113,21.0853C19.4113,21.8969 19.5296,22.6055 19.7661,23.2109C20.0027,23.8164 20.3705,24.2689 20.8696,24.5683C21.3688,24.8678 21.9091,25.0176 22.4907,25.0176C23.1982,25.0176 23.7971,24.8136 24.2876,24.4056C24.778,23.9976 25.1101,23.3921 25.2837,22.5892zM30.5311,25.9355L30.5311,17.5176L27.3866,17.5176L27.3866,16.3913L34.9517,16.3913L34.9517,17.5176L31.7941,17.5176L31.7941,25.9355zM35.8175,22.8691L37.0089,22.765C37.0654,23.2424 37.1967,23.6341 37.4028,23.9401C37.609,24.2461 37.9291,24.4935 38.3631,24.6823C38.7971,24.8711 39.2854,24.9655 39.828,24.9655C40.3097,24.9655 40.7351,24.8939 41.104,24.7506C41.4729,24.6074 41.7474,24.411 41.9276,24.1614C42.1077,23.9119 42.1977,23.6395 42.1977,23.3444C42.1977,23.0449 42.1109,22.7834 41.9373,22.5599C41.7637,22.3364 41.4773,22.1486 41.078,21.9967C40.8219,21.8969 40.2555,21.7417 39.3787,21.5312C38.502,21.3207 37.8879,21.1222 37.5363,20.9355C37.0806,20.6968 36.7409,20.4006 36.5174,20.0469C36.2939,19.6931 36.1821,19.2971 36.1821,18.8587C36.1821,18.3769 36.3188,17.9266 36.5923,17.5078C36.8657,17.089 37.265,16.771 37.7902,16.554C38.3154,16.337 38.8991,16.2285 39.5415,16.2285C40.249,16.2285 40.8729,16.3424 41.4132,16.5703C41.9536,16.7982 42.3692,17.1334 42.66,17.5762C42.9508,18.0189 43.107,18.5202 43.1287,19.0801L41.9178,19.1712C41.8527,18.5679 41.6324,18.1122 41.257,17.804C40.8816,17.4959 40.3271,17.3418 39.5936,17.3418C38.8297,17.3418 38.2731,17.4818 37.9237,17.7617C37.5743,18.0417 37.3996,18.3791 37.3996,18.7741C37.3996,19.117 37.5233,19.3991 37.7707,19.6204C38.0137,19.8418 38.6485,20.0686 39.675,20.3008C40.7014,20.533 41.4056,20.7359 41.7876,20.9095C42.3431,21.1656 42.7533,21.49 43.0181,21.8828C43.2828,22.2756 43.4152,22.7281 43.4152,23.2402C43.4152,23.748 43.2698,24.2265 42.979,24.6758C42.6882,25.125 42.2704,25.4744 41.7257,25.7239C41.181,25.9735 40.568,26.0983 39.8866,26.0983C39.0228,26.0983 38.2991,25.9724 37.7153,25.7207C37.1316,25.469 36.6737,25.0903 36.3416,24.5846C36.0096,24.079 35.8349,23.5071 35.8175,22.8691z" />
  </g>
  <g id="Rectangle18" transform="matrix(1,0,0,1,76.4005,470.2848)">
    <rect x="0" y="0" width="61.5244" height="42.1901" style="stroke:#000000;stroke-linecap:round;stroke-linejoin:round;stroke-width:4;fill:#FFFFFF;" />
    <path d="M17.66,25.9355L17.66,16.3913L20.9478,16.3913C21.6899,16.3913 22.2563,16.4368 22.647,16.528C23.1938,16.6538 23.6604,16.8817 24.0467,17.2116C24.5502,17.6369 24.9267,18.1805 25.1763,18.8424C25.4258,19.5043 25.5506,20.2606 25.5506,21.1113C25.5506,21.8361 25.466,22.4785 25.2967,23.0384C25.1274,23.5983 24.9104,24.0616 24.6457,24.4284C24.3809,24.7951 24.0912,25.0838 23.7765,25.2943C23.4619,25.5048 23.0821,25.6643 22.6372,25.7728C22.1923,25.8813 21.6813,25.9355 21.104,25.9355zM18.923,24.8092L20.9608,24.8092C21.5901,24.8092 22.0838,24.7506 22.4419,24.6334C22.8,24.5163 23.0853,24.3513 23.298,24.1387C23.5975,23.8392 23.8308,23.4366 23.9979,22.931C24.165,22.4253 24.2485,21.8123 24.2485,21.0918C24.2485,20.0935 24.0847,19.3264 23.757,18.7903C23.4293,18.2543 23.0311,17.8952 22.5623,17.7129C22.2238,17.5827 21.6791,17.5176 20.9282,17.5176L18.923,17.5176zM29.7173,25.9355L29.7173,17.5176L26.5728,17.5176L26.5728,16.3913L34.1379,16.3913L34.1379,17.5176L30.9803,17.5176L30.9803,25.9355zM35.453,25.9355L35.453,16.3913L39.6847,16.3913C40.5354,16.3913 41.1821,16.477 41.6248,16.6484C42.0675,16.8199 42.4213,17.1226 42.686,17.5566C42.9508,17.9907 43.0832,18.4703 43.0832,18.9954C43.0832,19.6725 42.864,20.2433 42.4256,20.7077C41.9872,21.1721 41.3102,21.4672 40.3944,21.5931C40.7286,21.7537 40.9825,21.9121 41.1561,22.0683C41.525,22.4069 41.8744,22.8301 42.2043,23.3379L43.8644,25.9355L42.2759,25.9355L41.0129,23.9499C40.6439,23.3769 40.3401,22.9386 40.1014,22.6348C39.8627,22.3309 39.6489,22.1183 39.4601,21.9967C39.2713,21.8752 39.0793,21.7906 38.8839,21.7428C38.7407,21.7124 38.5063,21.6973 38.1808,21.6973L36.716,21.6973L36.716,25.9355zM36.716,20.6035L39.4308,20.6035C40.0081,20.6035 40.4595,20.5438 40.785,20.4245C41.1105,20.3051 41.3579,20.1141 41.5272,19.8515C41.6964,19.589 41.7811,19.3036 41.7811,18.9954C41.7811,18.544 41.6172,18.1729 41.2895,17.8821C40.9619,17.5913 40.4443,17.4459 39.7368,17.4459L36.716,17.4459z" />
  </g>
</svg>